<svg width="165" height="38" viewBox="0 0 165 38" fill="none" xmlns="http://www.w3.org/2000/svg">
<path d="M87.6315 1.30269C87.6529 1.26727 87.6777 1.26727 87.7074 1.30269L87.6628 1.33811L87.6315 1.30269Z" fill="#0124DD"/>
<path d="M49.7244 13.6752C50.2012 12.2679 50.6533 10.9379 51.0955 9.61919C51.15 9.45817 51.2605 9.42114 51.4041 9.39538C53.7916 8.96064 56.1891 8.59029 58.6278 8.70784C60.3487 8.78673 62.0037 9.1297 63.4854 10.0314C65.4951 11.2519 66.4141 13.0907 66.5445 15.345C66.6204 16.6411 66.4042 17.9212 66.2145 19.19C65.8201 21.776 65.4142 24.3587 65.0331 26.9446C65.0227 27.0531 64.9826 27.1568 64.917 27.2449C64.8514 27.333 64.7627 27.4022 64.6602 27.4454C63.1059 28.2778 61.4196 28.7335 59.6871 29.0105C57.543 29.373 55.3561 29.4272 53.196 29.1715C51.3958 28.9509 49.7178 28.405 48.411 27.1137C47.8439 26.547 47.4036 25.8715 47.1182 25.13C46.8328 24.3885 46.7084 23.5972 46.7529 22.8063C46.7974 22.0154 47.0099 21.2422 47.3769 20.5357C47.7438 19.8292 48.2572 19.2048 48.8845 18.7022C50.2243 17.6266 51.8083 17.092 53.4765 16.7458C56.0026 16.2241 58.5519 16.295 61.1028 16.485C61.4212 16.5075 61.4905 16.4125 61.5054 16.1355C61.6192 14.1937 60.4246 12.7993 58.3275 12.4241C56.8722 12.1633 55.4433 12.3887 54.0144 12.6173C52.5564 12.8514 51.1213 13.2053 49.7244 13.6752ZM58.6476 19.533C57.7395 19.5272 56.8324 19.5924 55.935 19.7278C54.9648 19.8889 54.0226 20.1384 53.2405 20.7664C52.3561 21.4765 52.1202 22.4297 52.2951 23.4795C52.4601 24.4376 53.1465 24.9625 54.0358 25.2717C54.4435 25.4116 54.8676 25.5009 55.2981 25.5373C56.8887 25.6871 58.4331 25.4166 59.9676 25.0462C60.0717 25.0328 60.1671 24.9827 60.2358 24.9052C60.3046 24.8278 60.3418 24.7284 60.3405 24.626C60.55 23.1044 60.7579 21.5811 60.9889 20.0628C61.0285 19.8003 60.9394 19.7504 60.715 19.7085C60.0315 19.5984 59.3403 19.5397 58.6476 19.533Z" fill="#114185"/>
<path d="M123.387 24.2798C123.123 25.0623 122.892 25.7627 122.648 26.4631C122.453 27.038 122.245 27.608 122.06 28.1876C122.043 28.2764 121.998 28.358 121.933 28.4222C121.868 28.4864 121.785 28.5303 121.694 28.5483C119.17 29.2053 116.612 29.5611 114.005 29.2407C111.035 28.8752 108.58 27.6305 107.075 24.9721C106.149 23.3265 105.856 21.5344 105.981 19.6876C106.22 16.1742 107.72 13.2614 110.509 11.0055C112.203 9.63366 114.18 8.9284 116.355 8.71908C117.855 8.57577 119.346 8.60315 120.81 9.00086C123.79 9.80594 125.776 12.0682 126.157 15.0631C126.377 16.7844 126.157 18.4751 125.872 20.1674C125.837 20.3783 125.728 20.3848 125.563 20.3848C124.763 20.3848 123.961 20.3848 123.161 20.3848C119.311 20.3848 115.461 20.3848 111.611 20.3848C111.301 20.3848 111.21 20.4588 111.205 20.7696C111.162 23.3008 112.594 24.9721 115.144 25.3988C117.028 25.7209 118.861 25.4423 120.691 25.0526C121.606 24.853 122.507 24.5948 123.387 24.2798ZM116.655 17.0984H120.351C121.48 17.0984 121.48 17.0984 121.518 15.997C121.595 13.767 120.198 12.313 117.926 12.189C115.208 12.0393 112.646 13.9602 111.986 16.8102C111.931 17.0469 111.986 17.1048 112.233 17.1032C113.703 17.092 115.17 17.0984 116.655 17.0984Z" fill="#114185"/>
<path d="M132.874 29.3051C130.452 29.2893 128.047 28.898 125.75 28.1457C125.52 28.0685 125.459 28.004 125.542 27.7609C125.919 26.6456 126.281 25.5249 126.626 24.3989C126.712 24.1219 126.812 24.1445 127.04 24.2507C129.246 25.3038 131.738 25.6466 134.157 25.2297C134.724 25.1454 135.262 24.9301 135.727 24.6018C135.942 24.4563 136.121 24.2656 136.251 24.0437C136.381 23.8218 136.457 23.5744 136.476 23.3197C136.495 23.0649 136.455 22.8094 136.359 22.5717C136.263 22.3341 136.114 22.1205 135.922 21.9466C135.503 21.5677 135.032 21.247 134.523 20.9934C133.261 20.3042 131.977 19.6585 130.777 18.8599C127.555 16.7071 127.948 12.226 131.121 10.26C132.526 9.38888 134.066 8.95253 135.701 8.78668C138.427 8.51134 141.062 8.96702 143.659 9.73024C143.897 9.79947 143.958 9.86227 143.867 10.1086C143.476 11.1665 143.098 12.2308 142.743 13.3016C142.649 13.5834 142.537 13.5624 142.314 13.4626C140.69 12.7146 138.911 12.34 137.115 12.3677C136.244 12.3886 135.394 12.5287 134.656 13.0311C134.343 13.2262 134.104 13.5163 133.976 13.857C133.847 14.1976 133.837 14.5699 133.947 14.9166C134.089 15.3054 134.357 15.6384 134.711 15.865C135.475 16.4253 136.349 16.8037 137.186 17.2513C138.209 17.7728 139.186 18.3772 140.106 19.0579C142.826 21.1641 142.55 25.1766 139.941 27.2151C138.258 28.5274 136.288 29.0523 134.193 29.2391C133.666 29.2841 133.143 29.2922 132.874 29.3051Z" fill="#114185"/>
<path d="M150.673 29.3052C148.282 29.2827 145.91 28.8954 143.642 28.1572C143.38 28.0719 143.312 27.9962 143.41 27.7257C143.783 26.634 144.136 25.5358 144.479 24.4345C144.561 24.1672 144.644 24.1286 144.911 24.2541C147.108 25.2975 149.585 25.641 151.993 25.2363C152.509 25.1573 153.003 24.9777 153.447 24.7082C154.541 24.0271 154.674 22.776 153.75 21.9001C153.363 21.5602 152.932 21.2707 152.468 21.0386C151.148 20.3076 149.777 19.6539 148.535 18.7844C145.669 16.7636 146.025 13.1069 147.777 11.2714C148.959 10.0364 150.45 9.37296 152.105 9.01712C154.301 8.53407 156.496 8.65 158.689 9.0461C159.613 9.20711 160.517 9.45186 161.421 9.69017C161.721 9.77228 161.83 9.85923 161.703 10.1941C161.322 11.2037 160.976 12.2246 160.639 13.2535C160.545 13.5353 160.451 13.5755 160.167 13.4547C158.564 12.7203 156.813 12.3467 155.042 12.3614C154.217 12.3759 153.42 12.4951 152.701 12.9169C152.019 13.3147 151.675 13.8927 151.777 14.6881C151.841 15.1937 152.153 15.5464 152.546 15.8362C153.371 16.4464 154.32 16.849 155.217 17.332C156.24 17.8843 157.25 18.4591 158.143 19.2014C160.644 21.2947 160.362 25.1752 157.852 27.1718C156.504 28.2458 154.94 28.8029 153.252 29.0911C152.399 29.2263 151.537 29.2979 150.673 29.3052Z" fill="#114185"/>
<path d="M85.305 24.5648C85.2208 25.0478 85.008 25.481 84.8512 25.9367C84.5526 26.8045 84.2341 27.6644 83.9388 28.5339C83.9171 28.6208 83.8677 28.6988 83.7977 28.7567C83.7278 28.8145 83.6408 28.8493 83.5494 28.8559C81.5694 29.1779 79.5679 29.3824 77.5566 29.2343C74.5552 29.0137 71.9812 27.9461 70.2124 25.4504C68.965 23.6921 68.5245 21.6939 68.635 19.5894C68.8198 16.0792 70.3444 13.2067 73.1544 11.0072C74.7648 9.74801 76.659 9.1297 78.6769 8.87208C81.1748 8.52658 83.7184 8.67497 86.1564 9.30843C86.6217 9.43242 87.0705 9.60631 87.5275 9.75123C87.6925 9.80275 87.7354 9.87199 87.6744 10.0475C87.285 11.1585 86.8989 12.2728 86.5342 13.3918C86.4534 13.6382 86.3395 13.5883 86.1762 13.5255C85.0111 13.0593 83.7774 12.7772 82.5214 12.6898C79.8039 12.54 77.4411 13.2694 75.7449 15.477C74.1559 17.5461 73.9101 20.9822 75.6112 23.0593C76.6689 24.3474 78.0648 25.0301 79.7214 25.2185C81.5083 25.4214 83.2359 25.0849 84.942 24.6067C85.0509 24.5761 85.1614 24.5551 85.272 24.5294L85.305 24.5648Z" fill="#114185"/>
<path d="M104.115 24.5422C103.735 25.6081 103.3 26.6628 102.988 27.7512C102.762 28.545 102.381 28.9218 101.493 29.0088C99.0181 29.2503 96.5431 29.5208 94.0681 28.8816C90.1758 27.872 87.6332 24.8417 87.422 20.9032C87.191 16.6234 88.8707 13.2034 92.4033 10.6738C93.8883 9.61268 95.6208 9.1103 97.4292 8.88005C99.9265 8.53569 102.469 8.68352 104.907 9.31479C105.359 9.43556 105.793 9.6159 106.243 9.7431C106.479 9.81073 106.486 9.91538 106.408 10.1167C106.031 11.1939 105.656 12.2711 105.305 13.3563C105.22 13.6156 105.12 13.6059 104.904 13.5254C103.174 12.8813 101.406 12.5319 99.5395 12.7203C96.3699 13.052 93.9576 15.0969 93.3487 18.1063C92.9098 20.2784 93.3125 22.2654 95.0862 23.8031C96.5002 25.0268 98.2212 25.3682 100.054 25.2635C101.348 25.1804 102.625 24.9425 103.859 24.555C103.933 24.5422 103.999 24.4826 104.115 24.5422Z" fill="#114185"/>
<path d="M41.2566 20.1109L20.7026 0.0529785V3.13163L38.1018 20.1109L38.1084 20.1173L23.0373 34.8246L23.0192 34.8069L7.95796 20.1109L7.94476 20.098L15.3384 12.8828H12.1292L4.72891 20.1044L4.73551 20.1109L23.0126 37.9467L23.0192 37.9403L41.2731 20.127L41.2566 20.1109Z" fill="#FE6309"/>
<path d="M20.6959 5.25073V8.32938L32.7756 20.1174L23.0439 29.6142L13.3039 20.111L13.2907 20.0981L20.6844 12.8829H17.4751L10.0749 20.1045L10.0815 20.111L21.4318 31.1873L23.0191 32.7363L24.6328 31.1632L35.9403 20.1271L20.6959 5.25073Z" fill="#FE6309"/>
<path d="M30.6125 20.1109L24.585 14.2226L22.9812 12.6575L21.4038 14.1968L15.345 20.1045L21.4071 26.0203L22.9944 27.5693L24.6048 25.9961L30.629 20.1271L30.6125 20.1109ZM23.0225 24.4584L18.5675 20.1109L18.5543 20.0981L22.9977 15.7619L27.4527 20.1093L23.0225 24.4584Z" fill="#FE6309"/>
</svg>
