<svg width="13" height="13" viewBox="0 0 13 13" fill="none" xmlns="http://www.w3.org/2000/svg">
<path d="M6.31818 12.0341C5.49242 12.0341 4.71591 11.8788 3.98864 11.5682C3.26515 11.2576 2.62689 10.8277 2.07386 10.2784C1.52462 9.7254 1.0928 9.08714 0.778409 8.36366C0.467803 7.64017 0.314394 6.86366 0.318182 6.03411C0.32197 5.20457 0.479167 4.42805 0.789773 3.70457C1.10417 2.98108 1.53598 2.34472 2.08523 1.79548C2.63447 1.24245 3.27083 0.810628 3.99432 0.500022C4.7178 0.189416 5.49242 0.0341129 6.31818 0.0341129C7.14773 0.0341129 7.92424 0.189416 8.64773 0.500022C9.375 0.810628 10.0114 1.24245 10.5568 1.79548C11.1061 2.34472 11.536 2.98108 11.8466 3.70457C12.1572 4.42805 12.3144 5.20457 12.3182 6.03411C12.322 6.86366 12.1686 7.64017 11.858 8.36366C11.5473 9.08714 11.1174 9.7254 10.5682 10.2784C10.0189 10.8277 9.38068 11.2576 8.65341 11.5682C7.92614 11.8788 7.14773 12.0341 6.31818 12.0341Z" fill="#636363"/>
</svg>
