<svg width="29" height="24" viewBox="0 0 29 24" fill="none" xmlns="http://www.w3.org/2000/svg">
<path d="M5.55017 5.70927C7.62517 5.16903 10.1667 4.81297 12.9416 4.71474C13.4205 4.70246 13.8993 4.69019 14.3904 4.69019C14.8816 4.69019 15.3604 4.70246 15.827 4.71474C18.6018 4.81297 21.1311 5.15675 23.2184 5.70927C26.5826 6.5933 28.7559 7.95617 28.7559 9.50322C28.7559 11.6151 24.6795 13.4077 19.007 14.0584C17.5582 14.218 15.9989 14.3163 14.3782 14.3163C12.7574 14.3163 11.1981 14.2303 9.74929 14.0584C4.07679 13.4199 0.000442505 11.6151 0.000442505 9.50322C0.000442505 7.95617 2.17367 6.5933 5.55017 5.70927ZM10.0562 13.1376C10.1054 13.1498 10.1545 13.1498 10.2159 13.1621C11.0385 13.2849 11.9225 13.3708 12.8434 13.4199C13.0398 13.4322 13.2117 13.4322 13.3836 13.4445C13.7151 13.4568 14.0466 13.4568 14.3782 13.4568C14.7097 13.4568 15.0412 13.4568 15.3727 13.4445C15.5446 13.4445 15.7287 13.4322 15.9252 13.4199C16.8338 13.3708 17.7178 13.2849 18.5404 13.1621H18.5527C18.6018 13.1498 18.6509 13.1498 18.7001 13.1376C22.5677 12.5236 25.2811 11.1239 25.2811 9.50322C25.2811 8.50869 24.2743 7.60011 22.6168 6.91253C20.8487 6.17584 18.3194 5.67244 15.4832 5.57421C15.1271 5.56193 14.7588 5.54966 14.3904 5.54966C14.0221 5.54966 13.6537 5.56193 13.2977 5.57421C10.4614 5.67244 7.93213 6.17584 6.16407 6.91253C4.50652 7.61238 3.49971 8.50869 3.49971 9.50322C3.47516 11.1239 6.18863 12.5236 10.0562 13.1376Z" fill="white"/>
<path d="M19.0075 14.0461L14.3787 23.2425L9.74981 14.0461C11.1986 14.2058 12.758 14.304 14.3787 14.304C15.9994 14.304 17.5587 14.218 19.0075 14.0461Z" fill="white"/>
<path d="M10.9894 0L12.9416 4.72709L13.2854 5.57428L14.3781 8.22636L15.4709 5.57428L15.8147 4.72709L17.7669 0H26.0915L23.2184 5.70934L22.6168 6.9126L20.0752 11.9589C18.8351 12.7693 16.3549 13.1867 14.8447 13.4446C14.8815 13.4446 14.9184 13.4446 14.9552 13.4446C14.7588 13.4446 14.5746 13.4568 14.3781 13.4568C14.1817 13.4568 13.9975 13.4568 13.8011 13.4446C13.8379 13.4446 13.8747 13.4446 13.9116 13.4446C12.4136 13.1744 9.92117 12.757 8.68108 11.9589L6.13951 6.9126L5.53787 5.70934L2.66479 0H10.9894Z" fill="white"/>
</svg>
