<svg width="67" height="83" viewBox="0 0 67 83" fill="none" xmlns="http://www.w3.org/2000/svg">
<path d="M33.8768 82.182C52.1329 82.182 66.9323 80.971 66.9323 79.4771C66.9323 77.9833 52.1329 76.7723 33.8768 76.7723C15.6207 76.7723 0.821289 77.9833 0.821289 79.4771C0.821289 80.971 15.6207 82.182 33.8768 82.182Z" fill="#E6E7E8"/>
<path d="M24.2627 18.2228C23.7557 18.2569 23.2499 18.1414 22.8078 17.8904C22.3657 17.6395 22.0068 17.2641 21.7753 16.8108C21.5438 16.3575 21.45 15.8461 21.5055 15.3399C21.561 14.8337 21.7633 14.3549 22.0874 13.9628C20.6694 13.308 19.9196 11.6263 20.0235 10.0674C20.1275 8.50854 20.9478 7.09103 21.9723 5.89303C22.815 4.91454 23.8729 4.03278 25.1387 3.79095C25.3783 3.76702 25.6119 3.70156 25.8291 3.59748C26.0001 3.47696 26.1484 3.32707 26.2672 3.15474C27.1914 1.97162 28.331 0.885231 29.7564 0.409006C31.1819 -0.0672182 32.9265 0.204378 33.8805 1.3689C34.3574 0.953963 34.9487 0.693934 35.5762 0.623217C36.2038 0.5525 36.838 0.674427 37.3948 0.972867C37.9517 1.27131 38.4051 1.73219 38.6949 2.29453C38.9847 2.85687 39.0974 3.49416 39.0179 4.12207C40.0222 4.27068 40.9639 4.70149 41.7339 5.36458C42.5039 6.02768 43.0706 6.8959 43.3684 7.86862C43.8992 9.8256 42.9972 12.1249 41.1969 13.0513C40.989 13.1592 40.7403 13.3006 40.7477 13.5312C40.7682 13.6704 40.8303 13.8002 40.9259 13.9033C41.505 14.7329 41.2154 15.9347 40.5547 16.6862C39.894 17.4378 38.9066 17.8358 37.9563 18.2153C38.1677 18.4278 38.3086 18.7004 38.3597 18.996C38.4109 19.2916 38.3698 19.5959 38.2421 19.8672C37.9667 20.4105 37.5382 20.8607 37.0097 21.162C34.9458 22.4976 32.392 22.0809 30.0794 22.1293C27.945 22.174 25.8254 20.8085 24.4111 19.2608C24.1365 18.9669 23.9174 18.4311 24.2627 18.2228Z" fill="white"/>
<path d="M32.637 22.3413C32.2658 22.3413 31.8946 22.3413 31.5531 22.3413C31.0705 22.3413 30.5657 22.319 30.0906 22.3413C28.1529 22.3748 26.0074 21.2847 24.2776 19.4133C24.1558 19.2909 24.0602 19.145 23.9963 18.9845C23.9325 18.824 23.9019 18.6522 23.9064 18.4794C23.9043 18.4659 23.9043 18.4521 23.9064 18.4385C23.4066 18.4144 22.9227 18.2551 22.506 17.9774C22.0894 17.6998 21.7556 17.3142 21.5401 16.8616C21.3246 16.409 21.2354 15.9064 21.2822 15.4071C21.3289 14.9078 21.5097 14.4305 21.8053 14.026C20.5247 13.3191 19.7266 11.723 19.838 10.0562C19.9308 8.63124 20.6027 7.19141 21.8313 5.77018C22.9004 4.53497 23.9695 3.82807 25.1053 3.60856L25.2315 3.58624C25.4101 3.5792 25.5841 3.5271 25.7372 3.43474C25.8903 3.34239 26.0177 3.21278 26.1076 3.05793C27.2731 1.56973 28.4424 0.654483 29.6971 0.234066C31.245 -0.283084 32.9414 0.0778042 33.9028 1.10838C34.4088 0.716847 35.0171 0.48066 35.6542 0.428399C36.2913 0.376139 36.9299 0.510046 37.4927 0.813916C38.0554 1.11779 38.5183 1.5786 38.8252 2.1406C39.1321 2.70261 39.27 3.34172 39.2221 3.98061C40.2251 4.16228 41.159 4.61637 41.9222 5.2934C42.6854 5.97044 43.2486 6.84444 43.5503 7.82017C44.1146 9.89994 43.116 12.2848 41.2823 13.2186C41.0967 13.3116 40.9297 13.4158 40.9334 13.5274C40.9518 13.6046 40.9887 13.6761 41.041 13.7358L41.0744 13.7841C41.7352 14.7217 41.3603 16.035 40.6735 16.794C39.9943 17.4623 39.1752 17.9706 38.2756 18.2822C38.4381 18.526 38.5363 18.8071 38.5609 19.0993C38.5856 19.3914 38.536 19.6851 38.4166 19.9527C38.1325 20.5263 37.684 21.0018 37.1286 21.3182C35.7514 22.2111 34.1923 22.3413 32.637 22.3413ZM30.5026 21.9395C30.8552 21.9395 31.2116 21.9395 31.5605 21.9395C33.4165 21.9767 35.3282 22.0176 36.9133 20.9908C37.4127 20.7119 37.8174 20.2894 38.0751 19.7779C38.1903 19.5409 38.2289 19.2738 38.1857 19.0138C38.1425 18.7537 38.0195 18.5136 37.8338 18.3269C37.8095 18.3062 37.791 18.2796 37.7799 18.2496C37.7689 18.2196 37.7657 18.1873 37.7707 18.1557C37.7759 18.1237 37.7892 18.0935 37.8094 18.0681C37.8295 18.0427 37.8558 18.0229 37.8858 18.0106C38.7544 17.6609 39.7418 17.2665 40.3988 16.5224C40.9891 15.8713 41.3194 14.7552 40.77 13.9739L40.7366 13.933C40.6354 13.816 40.5732 13.6704 40.5585 13.5163C40.5585 13.1442 40.9111 12.9656 41.1078 12.8652C42.7931 11.9946 43.7063 9.81436 43.1866 7.89458C42.8929 6.96157 42.343 6.1303 41.5999 5.49599C40.8567 4.86169 39.9503 4.44998 38.9846 4.30802C38.9365 4.30065 38.8933 4.2747 38.8642 4.23575C38.835 4.1968 38.8223 4.14794 38.8287 4.09967C38.9016 3.51028 38.7951 2.91256 38.5232 2.38488C38.2513 1.8572 37.8266 1.42419 37.3049 1.14262C36.7832 0.861047 36.1887 0.744062 35.5995 0.807001C35.0103 0.86994 34.4538 1.10986 34.003 1.49532C33.9844 1.51176 33.9626 1.52421 33.939 1.53188C33.9154 1.53956 33.8904 1.54231 33.8657 1.53996C33.8412 1.53813 33.8173 1.53123 33.7956 1.51971C33.7739 1.50818 33.7548 1.49228 33.7395 1.47299C32.9043 0.453575 31.2896 0.0815245 29.8196 0.576352C28.6355 0.970725 27.5219 1.84877 26.4157 3.25884C26.2846 3.44969 26.1198 3.61488 25.9294 3.74622C25.7334 3.85079 25.5192 3.91648 25.2984 3.93969L25.1796 3.96201C24.1291 4.16664 23.1268 4.83261 22.1134 6.00085C20.9405 7.35883 20.302 8.72798 20.2129 10.0674C20.1052 11.6746 20.907 13.2 22.1691 13.7879C22.1948 13.7998 22.2174 13.8174 22.2354 13.8393C22.2534 13.8612 22.2663 13.8868 22.2731 13.9144C22.279 13.9424 22.2784 13.9714 22.2713 13.9991C22.2642 14.0269 22.2509 14.0526 22.2322 14.0743C21.9261 14.4369 21.7339 14.8821 21.6797 15.3539C21.6255 15.8258 21.7117 16.3031 21.9276 16.7259C22.1435 17.1487 22.4793 17.4981 22.8929 17.73C23.3064 17.9619 23.7791 18.066 24.2516 18.0292C24.2939 18.0249 24.3363 18.0356 24.3716 18.0594C24.4068 18.0832 24.4327 18.1186 24.4446 18.1595C24.4572 18.1994 24.456 18.2424 24.4412 18.2816C24.4264 18.3207 24.3988 18.3537 24.3629 18.3752C24.34 18.388 24.3206 18.4062 24.3063 18.4283C24.2921 18.4503 24.2835 18.4756 24.2813 18.5017C24.2876 18.7392 24.3862 18.9648 24.556 19.1305C26.1967 20.9238 28.268 21.973 30.0831 21.9358L30.5026 21.9395Z" fill="#231F20"/>
<path d="M50.7739 72.7095C51.6239 72.7095 57.9604 73.3978 60.9263 74.8748C63.8922 76.3519 64.5343 76.4672 63.933 78.4614C63.3316 80.4556 58.1088 80.9467 54.1333 80.1951C51.5727 79.6675 49.1028 78.7676 46.802 77.5238L50.7739 72.7095Z" fill="white"/>
<path d="M57.8825 80.7272C56.614 80.7222 55.3488 80.5977 54.1036 80.3552C51.5256 79.8235 49.0384 78.9186 46.7204 77.669C46.6989 77.656 46.6802 77.6387 46.6655 77.6182C46.6509 77.5978 46.6405 77.5745 46.635 77.5499C46.6307 77.5256 46.6318 77.5007 46.6382 77.4769C46.6447 77.4531 46.6562 77.431 46.6722 77.4122L50.644 72.5979C50.6586 72.5782 50.6776 72.5622 50.6996 72.5512C50.7215 72.5402 50.7457 72.5345 50.7702 72.5347H50.8073C51.843 72.5347 58.0309 73.2416 61.0005 74.7186L61.6687 75.0497C64.0481 76.218 64.6903 76.5379 64.0964 78.5098C63.7214 79.7599 61.2789 80.7272 57.8825 80.7272ZM47.0656 77.4718C49.3008 78.6545 51.6915 79.515 54.1667 80.0278C58.1571 80.7719 63.2203 80.2436 63.7734 78.4131C64.282 76.7165 63.9145 76.5342 61.5202 75.3585L60.8521 75.0274C58.0198 73.6173 51.9618 72.8993 50.8519 72.877L47.0656 77.4718Z" fill="#231F20"/>
<path d="M51.6239 72.6909C52.1844 72.8285 52.6722 73.1734 52.9896 73.6564C53.307 74.1394 53.4304 74.7248 53.3352 75.2953C53.0568 77.4122 48.5912 77.5015 48.3351 77.5276C48.079 77.5536 51.6239 72.6909 51.6239 72.6909Z" fill="white"/>
<path d="M48.3351 77.6467C48.3019 77.6457 48.2696 77.6363 48.241 77.6193C48.2125 77.6024 48.1887 77.5786 48.1718 77.5499C48.1161 77.4383 48.027 77.2672 51.4866 72.5756C51.5064 72.5483 51.5341 72.5276 51.5659 72.5163C51.5977 72.505 51.6322 72.5037 51.6648 72.5124C51.6833 72.5124 53.7992 73.0444 53.5208 75.2879C53.2387 77.442 49.1703 77.6318 48.3574 77.6467H48.3351ZM51.6759 72.8733C50.5883 74.3615 48.9699 76.5938 48.5652 77.3007C49.5823 77.2523 52.9269 76.9658 53.1533 75.2432C53.2405 74.7392 53.1396 74.2206 52.8699 73.7863C52.6002 73.352 52.1805 73.0323 51.6908 72.8882L51.6759 72.8733Z" fill="#231F20"/>
<path d="M18.5276 77.5387C18.3977 77.6057 17.1839 79.1869 11.8905 79.8194C6.59718 80.4519 4.63353 81.5941 3.45311 78.8074C2.27268 76.0208 3.0819 74.22 5.68032 73.4239C8.27873 72.6277 15.4763 71.9691 16.8869 73.3011C18.2975 74.633 18.5276 77.5387 18.5276 77.5387Z" fill="white"/>
<path d="M6.06638 80.7643C4.75604 80.7643 3.91341 80.3253 3.29722 78.8743C2.68102 77.4233 2.58822 76.1769 3.03738 75.2133C3.45312 74.3204 4.32916 73.6619 5.63579 73.2638C8.0783 72.5197 15.4986 71.7533 17.0057 73.1782C18.4497 74.5399 18.6798 77.4047 18.691 77.5237C18.6927 77.5553 18.686 77.5867 18.6717 77.6148C18.6573 77.6429 18.6358 77.6667 18.6093 77.6837L18.5573 77.7284C17.0317 79.1198 14.1029 79.7263 11.9054 79.9867C10.7658 80.1244 9.78582 80.2844 8.93577 80.4257C7.98896 80.6094 7.02987 80.7226 6.06638 80.7643ZM12.9188 72.7057C10.376 72.7057 7.29506 73.1112 5.74344 73.5875C4.52589 73.9595 3.71667 74.5548 3.34547 75.3584C2.93715 76.229 3.02624 77.3675 3.60903 78.7404C4.48135 80.8052 5.76942 80.6006 8.87267 80.0909C9.74128 79.9495 10.7287 79.7895 11.872 79.6519C14.0175 79.3952 16.8795 78.8073 18.3383 77.4754C18.2863 76.988 17.9671 74.5808 16.7681 73.4349C16.2336 72.9066 14.708 72.7057 12.9188 72.7057Z" fill="#231F20"/>
<path d="M20.2166 76.4002C20.2166 76.4002 17.8149 78.4093 16.2151 78.1712C14.6152 77.9331 12.4028 77.055 13.2937 75.325C14.1846 73.595 19.9196 72.5532 19.9196 72.5532L20.2166 76.4002Z" fill="white"/>
<path d="M16.4897 78.361C16.3891 78.3611 16.2886 78.3537 16.189 78.3387C14.9901 78.1601 13.5424 77.6467 13.0784 76.7352C12.9638 76.5016 12.9096 76.243 12.9206 75.983C12.9316 75.723 13.0076 75.4699 13.1415 75.247C14.0621 73.4537 19.6523 72.4305 19.8899 72.3859C19.9133 72.3819 19.9372 72.3828 19.9603 72.3885C19.9833 72.3943 20.0048 72.4048 20.0235 72.4194C20.0424 72.4343 20.058 72.4528 20.0694 72.4739C20.0809 72.495 20.088 72.5182 20.0904 72.5422L20.3873 76.3854C20.3894 76.4126 20.3851 76.4398 20.3748 76.465C20.3645 76.4902 20.3484 76.5127 20.3279 76.5305C20.2314 76.6087 18.1193 78.361 16.4897 78.361ZM19.7674 72.7579C18.7837 72.9514 14.1994 73.9299 13.457 75.4032C13.3475 75.5782 13.2839 75.7781 13.2722 75.9843C13.2606 76.1905 13.3011 76.3964 13.3902 76.5826C13.7985 77.3751 15.1348 77.8364 16.2521 78.0039C17.6145 78.2085 19.6598 76.6384 20.0532 76.3259L19.7674 72.7579Z" fill="#231F20"/>
<path d="M49.0664 59.5241C49.0664 59.5241 46.5348 69.4206 37.2956 71.3106C28.0564 73.2007 23.2753 72.7021 20.0013 66.4517C16.7273 60.2012 18.8877 56.3765 18.8877 56.3765L48.0456 55.7961L49.0664 59.5241Z" fill="#231F20"/>
<path d="M29.6748 72.4677C25.2204 72.4677 22.1283 70.9125 19.8342 66.5372C16.5528 60.2682 18.6427 56.4435 18.7206 56.2835C18.7368 56.2554 18.7601 56.232 18.7881 56.2157C18.8161 56.1994 18.8479 56.1907 18.8802 56.1905L48.0381 55.6101C48.0802 55.608 48.1217 55.6205 48.1555 55.6456C48.1894 55.6707 48.2135 55.7068 48.2237 55.7478L49.2334 59.4683C49.2408 59.5001 49.2408 59.5332 49.2334 59.565C49.2074 59.6654 46.5682 69.6103 37.3178 71.4892C34.3965 72.0956 31.8686 72.4677 29.6748 72.4677ZM19.0102 56.5588C18.7206 57.1727 17.2581 60.8114 20.1646 66.3661C23.4869 72.6909 28.331 72.9588 37.2399 71.1283C45.9371 69.3499 48.6506 60.2533 48.8548 59.5241L47.8934 55.9859L19.0102 56.5588Z" fill="#231F20"/>
<path d="M16.7124 59.6133C16.7124 59.6133 11.9351 44.136 12.5624 34.4367C13.1897 24.7373 16.7867 24.3913 21.694 23.8444C23.8729 23.5988 35.4804 21.8762 39.8272 27.0031C44.1739 32.1299 51.8244 56.1421 51.8244 56.1421L16.7124 59.6133Z" fill="#34A853"/>
<path d="M33.9547 23.8705L33.2123 29.0495C33.2123 29.0495 31.5865 31.7245 28.331 30.3703C25.0756 29.016 25.0125 26.5195 25.0125 26.5195L26.5567 16.9504C26.5567 16.9504 29.9903 13.8624 31.4343 7.96167C31.4343 7.96167 34.3111 12.9918 38.4871 14.1228C38.4871 14.1228 38.2087 18.301 37.4626 20.8904C36.7202 23.3943 34.0067 23.8408 33.9547 23.8705Z" fill="white"/>
<path d="M30.0757 30.9356C29.4443 30.928 28.8209 30.7939 28.242 30.5412C24.9012 29.1572 24.8121 26.631 24.8083 26.5231L26.3637 16.9205C26.3712 16.8779 26.392 16.8388 26.4231 16.8088C26.4565 16.7791 29.8307 13.6911 31.2487 7.91683C31.2589 7.88138 31.279 7.84958 31.3066 7.82518C31.3342 7.80079 31.3682 7.78483 31.4046 7.77917C31.4409 7.77404 31.4779 7.77977 31.5109 7.79566C31.5439 7.81155 31.5715 7.83688 31.5902 7.86847C31.6199 7.92055 34.4819 12.8465 38.5242 13.9403C38.566 13.9515 38.6026 13.9769 38.6277 14.0122C38.6528 14.0476 38.6648 14.0906 38.6616 14.1338C38.6616 14.1747 38.3721 18.364 37.6297 20.9423C37.0172 23.0667 35.0312 23.7959 34.1255 24.0192L33.3831 29.0753C33.3797 29.1 33.3721 29.1239 33.3608 29.146C32.995 29.685 32.5061 30.1286 31.9346 30.4398C31.3632 30.7511 30.7259 30.9211 30.0757 30.9356ZM26.7349 17.0395L25.1981 26.5491C25.1981 26.6086 25.3095 28.9079 28.4053 30.1989C31.297 31.4007 32.8597 29.2614 33.0379 28.9823L33.7803 23.8443C33.7837 23.8161 33.794 23.7892 33.8102 23.7658C33.8263 23.7425 33.8479 23.7235 33.8731 23.7104C33.9073 23.6905 33.9452 23.6778 33.9845 23.6732C34.7825 23.4834 36.7054 22.8249 37.277 20.8381C37.9303 18.5724 38.2273 15.0304 38.283 14.2603C34.7937 13.2334 32.2621 9.62827 31.5048 8.43398C30.0943 13.6725 27.1358 16.6303 26.7349 17.0395Z" fill="#231F20"/>
<path d="M28.5575 17.0955C28.5158 16.6114 28.3177 16.1542 27.9933 15.7933C27.6778 15.469 27.3086 15.2021 26.9019 15.0045C26.6911 14.8738 26.4541 14.7913 26.2078 14.7627C26.0336 14.7644 25.8611 14.7985 25.6993 14.8631C25.304 14.9895 24.9669 15.2534 24.749 15.6072C24.6055 15.9074 24.5379 16.2383 24.5522 16.5709C24.5376 16.9307 24.57 17.291 24.6488 17.6424C24.7359 17.9932 24.8921 18.3231 25.1082 18.6127C25.3243 18.9023 25.5959 19.1457 25.907 19.3287C26.2182 19.5116 26.5627 19.6305 26.9203 19.6782C27.2779 19.726 27.6415 19.7017 27.9896 19.6068" fill="white"/>
<path d="M27.2843 19.8709C26.6383 19.8715 26.0107 19.6559 25.5009 19.2582C24.9912 18.8605 24.6285 18.3036 24.4706 17.6758C24.3845 17.3104 24.3495 16.9348 24.3666 16.5597C24.3535 16.1973 24.4287 15.8372 24.5856 15.5105C24.8221 15.1216 25.1894 14.83 25.6213 14.6883C25.806 14.6163 26.0022 14.5785 26.2004 14.5767C26.4754 14.6057 26.7404 14.6959 26.9762 14.8408C27.4006 15.0485 27.7861 15.3279 28.1158 15.6668C28.4678 16.0588 28.6829 16.5551 28.7282 17.0806C28.7314 17.1297 28.7153 17.1781 28.6834 17.2156C28.6516 17.2531 28.6064 17.2767 28.5575 17.2815C28.5087 17.2837 28.4608 17.2672 28.4236 17.2355C28.3864 17.2037 28.3626 17.159 28.357 17.1103C28.3206 16.6676 28.1422 16.2487 27.8485 15.916C27.5468 15.6089 27.1938 15.3571 26.8054 15.1719C26.6203 15.053 26.4111 14.9767 26.1929 14.9487C26.0426 14.95 25.8938 14.9803 25.7549 15.038C25.4043 15.1465 25.1024 15.3741 24.9012 15.6816C24.7751 15.9565 24.7166 16.2575 24.7304 16.5597C24.7126 16.9034 24.7439 17.2479 24.8232 17.5828C24.9049 17.9085 25.0503 18.2147 25.2511 18.4835C25.4519 18.7524 25.704 18.9785 25.9927 19.1489C26.2815 19.3192 26.6011 19.4303 26.9331 19.4757C27.2651 19.5211 27.6027 19.4999 27.9265 19.4133C27.9737 19.4008 28.024 19.4074 28.0664 19.4318C28.1088 19.4562 28.1399 19.4963 28.1529 19.5435C28.159 19.5672 28.1604 19.5919 28.157 19.6161C28.1536 19.6404 28.1455 19.6637 28.1331 19.6848C28.1207 19.7059 28.1042 19.7243 28.0847 19.739C28.0652 19.7537 28.0429 19.7644 28.0193 19.7705C27.7798 19.8368 27.5326 19.8705 27.2843 19.8709Z" fill="#231F20"/>
<path d="M33.2235 15.6184C33.2235 15.6184 34.6823 18.5018 34.2035 18.9148C33.7246 19.3277 32.5739 18.8738 32.5739 18.8738" fill="white"/>
<path d="M33.6058 19.2756C33.2245 19.2638 32.8479 19.1871 32.4922 19.0487C32.4696 19.0396 32.4489 19.0262 32.4314 19.0092C32.4139 18.9921 32.3999 18.9718 32.3902 18.9494C32.3806 18.9269 32.3754 18.9027 32.3751 18.8783C32.3748 18.8538 32.3793 18.8296 32.3883 18.8068C32.4073 18.7616 32.443 18.7254 32.488 18.706C32.533 18.6865 32.5837 18.6854 32.6296 18.7027C32.9006 18.8068 33.7432 19.0487 34.0661 18.7734C34.2629 18.6096 33.7729 17.1438 33.0453 15.7002C33.0339 15.6786 33.027 15.6548 33.0249 15.6304C33.0229 15.606 33.0257 15.5815 33.0333 15.5582C33.041 15.5349 33.0532 15.5134 33.0693 15.495C33.0854 15.4766 33.105 15.4616 33.127 15.4509C33.171 15.4299 33.2214 15.4266 33.2677 15.4418C33.3141 15.4571 33.3527 15.4897 33.3757 15.5328C33.8323 16.4406 34.8419 18.5985 34.3111 19.0561C34.1078 19.2076 33.859 19.285 33.6058 19.2756Z" fill="#231F20"/>
<path d="M31.4113 14.9667C31.4393 14.6226 31.2632 14.3274 31.018 14.3074C30.7728 14.2874 30.5513 14.55 30.5234 14.8941C30.4954 15.2382 30.6715 15.5333 30.9167 15.5534C31.1619 15.5734 31.3833 15.3107 31.4113 14.9667Z" fill="#231F20"/>
<path d="M36.0101 15.6034C36.0357 15.2592 35.8576 14.9652 35.6123 14.9469C35.3669 14.9286 35.1473 15.1928 35.1217 15.5371C35.0961 15.8813 35.2743 16.1752 35.5196 16.1936C35.7649 16.2119 35.9846 15.9477 36.0101 15.6034Z" fill="#231F20"/>
<path d="M32.8449 21.5824C32.2773 21.5924 31.7157 21.4647 31.2079 21.2103C30.3207 20.7453 29.7528 19.8561 29.5189 18.5688C29.5147 18.5446 29.5152 18.5198 29.5206 18.4958C29.5259 18.4718 29.536 18.4491 29.5501 18.4291C29.5643 18.409 29.5823 18.392 29.603 18.3789C29.6238 18.3658 29.6469 18.357 29.6711 18.353C29.7192 18.3453 29.7684 18.3564 29.8085 18.3841C29.8486 18.4118 29.8765 18.454 29.8864 18.5018C30.0943 19.67 30.5991 20.4699 31.3712 20.8792C32.9303 21.6977 35.1241 20.7081 35.1463 20.6969C35.1911 20.6768 35.2421 20.6752 35.288 20.6927C35.3339 20.7101 35.3711 20.7451 35.3913 20.7899C35.4018 20.8121 35.4077 20.8361 35.4087 20.8606C35.4096 20.8851 35.4057 20.9095 35.397 20.9325C35.3883 20.9554 35.3752 20.9763 35.3582 20.994C35.3413 21.0117 35.321 21.0258 35.2985 21.0355C34.5233 21.374 33.6902 21.5597 32.8449 21.5824Z" fill="#231F20"/>
<path d="M33.9547 23.8706C33.9547 23.8706 30.6139 24.1459 28.8915 22.7842C28.8915 22.7842 30.3578 27.4348 33.4388 27.4199L33.9547 23.8706Z" fill="#231F20"/>
<path d="M33.4165 27.6058C30.2465 27.6058 28.7691 23.0333 28.706 22.8398C28.695 22.8017 28.6963 22.761 28.7097 22.7237C28.723 22.6863 28.7476 22.654 28.7802 22.6315C28.8115 22.607 28.85 22.5938 28.8897 22.5938C28.9294 22.5938 28.9679 22.607 28.9992 22.6315C30.6585 23.9299 33.8991 23.6806 33.9325 23.6769C33.9601 23.675 33.9878 23.6792 34.0136 23.6894C34.0394 23.6996 34.0626 23.7155 34.0814 23.7358C34.1003 23.7562 34.1144 23.7805 34.1227 23.807C34.1309 23.8335 34.1332 23.8615 34.1292 23.889L33.6132 27.4421C33.6053 27.4884 33.5811 27.5303 33.545 27.5603C33.509 27.5903 33.4634 27.6065 33.4165 27.6058ZM29.2591 23.2528C29.7305 24.4173 31.0668 27.1147 33.2717 27.23L33.7283 24.0713C33.0156 24.1011 30.8181 24.1234 29.2665 23.2528H29.2591Z" fill="#231F20"/>
<path d="M18.0154 24.7074C11.1593 23.8517 4.72263 53.0242 8.46435 55.796C14.2996 60.1229 32.1099 54.2147 32.1099 54.2147L30.3281 46.517C30.3281 46.517 17.4734 47.1309 17.2396 44.4856C17.0057 41.8403 24.4223 29.4399 23.3829 27.6317C22.3436 25.8236 18.0154 24.7074 18.0154 24.7074Z" fill="#34A853"/>
<path d="M41.9542 46.7331C41.9133 46.7343 41.8734 46.72 41.8425 46.6932C41.8115 46.6663 41.7918 46.6287 41.7872 46.588C40.9037 40.3673 38.966 29.9499 38.3387 29.3397C38.3082 29.3077 38.2912 29.2651 38.2913 29.2208C38.2915 29.1766 38.3088 29.1341 38.3395 29.1023C38.3703 29.0705 38.4121 29.0519 38.4563 29.0504C38.5004 29.0489 38.5434 29.0646 38.5763 29.0942C39.3818 29.8792 41.4531 41.8295 42.1212 46.5396C42.1276 46.5845 42.1159 46.6301 42.0888 46.6664C42.0616 46.7026 42.0212 46.7266 41.9765 46.7331H41.9542Z" fill="#231F20"/>
<path d="M35.395 61.4513L23.5611 58.1289L45.2949 54.0326L57.0583 58.9734L35.395 61.4513Z" fill="white"/>
<path d="M35.395 61.6485C35.3791 61.652 35.3627 61.652 35.3468 61.6485L23.5129 58.3001C23.4636 58.3001 23.4164 58.2805 23.3816 58.2456C23.3468 58.2107 23.3273 58.1634 23.3273 58.114C23.3273 58.0647 23.3468 58.0174 23.3816 57.9825C23.4164 57.9476 23.4636 57.928 23.5129 57.928L45.2467 53.8355C45.2805 53.8244 45.3169 53.8244 45.3506 53.8355L57.114 58.7763C57.1517 58.7923 57.183 58.8203 57.2031 58.8559C57.2233 58.8916 57.2311 58.9329 57.2254 58.9735C57.2199 59.0146 57.2008 59.0526 57.1712 59.0816C57.1416 59.1106 57.1032 59.1289 57.0621 59.1335L35.4173 61.6485H35.395ZM24.3778 58.1773L35.4099 61.2765L56.3308 58.8842L45.2727 54.241L24.3778 58.1773Z" fill="#231F20"/>
<path d="M28.4127 49.1772C31.0111 49.4637 33.4202 49.6498 35.8367 50.6654C37.2176 51.2468 38.5217 51.9965 39.7195 52.8978C40.3298 53.3318 40.9001 53.8199 41.4233 54.3562C41.8391 54.8101 41.7054 55.2528 41.0076 55.0333C40.1961 54.7785 39.4277 54.4022 38.7284 53.9172C40.4004 55.2844 41.8823 56.8697 43.1346 58.6311C43.2756 58.832 43.413 59.1184 43.2459 59.297C43.0789 59.4756 42.7077 59.297 42.5035 59.111L38.8323 55.6212C39.8042 56.4615 40.6307 57.4572 41.2786 58.5678C41.3714 58.7278 41.4604 58.9399 41.3639 59.085C41.2006 59.3566 40.7849 59.1519 40.5621 58.925C39.4625 57.8121 38.4626 56.6045 37.574 55.3161L39.5562 58.2925C39.5374 58.3474 39.508 58.398 39.4696 58.4414C39.4312 58.4849 39.3846 58.5202 39.3324 58.5455C39.2803 58.5707 39.2237 58.5854 39.1659 58.5886C39.1081 58.5918 39.0502 58.5834 38.9957 58.5641C38.7774 58.4737 38.5884 58.3243 38.45 58.1325L36.0483 55.3682L37.4663 57.3252C37.689 57.6302 37.9118 58.0693 37.6556 58.3557C37.3995 58.6422 36.8204 58.3557 36.4938 58.0655C35.1798 56.8638 33.7369 55.8119 32.1915 54.9292C31.631 54.598 31.1522 54.1478 30.5323 53.9581C29.6414 53.6828 28.5278 53.72 27.5998 53.6158" fill="white"/>
<path d="M43.0677 59.5501C42.8197 59.522 42.589 59.409 42.4144 59.2301L41.2266 58.114C41.3045 58.2368 41.3825 58.3633 41.453 58.486C41.5282 58.5829 41.5758 58.6984 41.5908 58.8202C41.6058 58.9421 41.5877 59.0657 41.5384 59.178C41.5051 59.2354 41.4589 59.2841 41.4035 59.3203C41.3481 59.3564 41.2849 59.3791 41.2192 59.3864C41.0788 59.3846 40.9403 59.3536 40.8125 59.2953C40.6847 59.237 40.5704 59.1527 40.4768 59.0478C40.2318 58.8023 39.9942 58.553 39.7603 58.3037C39.762 58.3173 39.762 58.3311 39.7603 58.3446C39.7463 58.4135 39.7178 58.4786 39.6769 58.5357C39.6359 58.5927 39.5834 58.6405 39.5228 58.6758C39.4426 58.7238 39.3535 58.7549 39.261 58.767C39.1684 58.7792 39.0743 58.7722 38.9845 58.7465C38.7348 58.6483 38.5184 58.4804 38.3609 58.2628L37.9229 57.7605C37.9776 57.8817 37.9968 58.016 37.9784 58.1477C37.96 58.2794 37.9047 58.4031 37.819 58.5046C37.7655 58.5646 37.7004 58.613 37.6276 58.6469C37.5549 58.6808 37.476 58.6995 37.3958 58.7018C37.0081 58.6594 36.6492 58.4769 36.3861 58.1884C35.0851 56.9931 33.653 55.9497 32.1173 55.078C31.928 54.9664 31.7461 54.8399 31.5679 54.706C31.2436 54.4525 30.8816 54.2516 30.4952 54.1107C29.8479 53.9466 29.1842 53.8567 28.5167 53.8428C28.1974 53.8242 27.8856 53.8056 27.5924 53.7759C27.5476 53.7703 27.5069 53.7472 27.4791 53.7117C27.4513 53.6761 27.4386 53.631 27.4439 53.5861C27.4462 53.5641 27.4528 53.5427 27.4634 53.5233C27.474 53.5038 27.4884 53.4867 27.5057 53.4728C27.5229 53.459 27.5428 53.4487 27.564 53.4426C27.5853 53.4365 27.6075 53.4347 27.6295 53.4373C27.919 53.4671 28.2234 53.4857 28.5352 53.5043C29.2304 53.5176 29.9216 53.6112 30.5954 53.7833C31.0138 53.9366 31.4068 54.1524 31.7609 54.4232C31.9317 54.546 32.1062 54.6651 32.2881 54.773C33.8448 55.6596 35.2978 56.7178 36.62 57.928C36.8208 58.1325 37.0803 58.2691 37.3624 58.3186C37.3969 58.3174 37.4308 58.3091 37.462 58.2944C37.4933 58.2797 37.5213 58.2589 37.5443 58.233C37.7447 58.0135 37.47 57.5857 37.3438 57.4108L35.9258 55.4575C35.9126 55.4405 35.9028 55.421 35.8971 55.4001C35.8914 55.3792 35.8899 55.3574 35.8927 55.336C35.8955 55.3145 35.9024 55.2939 35.9132 55.2751C35.924 55.2564 35.9384 55.24 35.9555 55.2269C35.9868 55.1962 36.0287 55.179 36.0725 55.179C36.1162 55.179 36.1582 55.1962 36.1894 55.2269L38.5948 57.9912C38.7121 58.1558 38.8727 58.2846 39.0588 58.3632C39.1027 58.3756 39.1487 58.379 39.1939 58.3732C39.2392 58.3675 39.2829 58.3527 39.3223 58.3298C39.346 58.3174 39.3664 58.2995 39.3817 58.2777L37.4478 55.3645C37.4227 55.3275 37.4132 55.282 37.4216 55.2381C37.4299 55.1941 37.4554 55.1553 37.4923 55.1301C37.5292 55.105 37.5746 55.0955 37.6185 55.1039C37.6623 55.1123 37.7011 55.1378 37.7262 55.1748C38.6108 56.4541 39.6044 57.6541 40.6958 58.7613C40.8166 58.8943 40.9815 58.9789 41.1598 58.9995C41.1744 58.9991 41.1887 58.9947 41.2012 58.9868C41.2136 58.979 41.2236 58.9679 41.2303 58.9548C41.2711 58.8916 41.2303 58.7725 41.1449 58.6088C40.6981 57.8423 40.1637 57.1306 39.5525 56.4881L38.7247 55.6994C38.6979 55.6675 38.6837 55.6268 38.6847 55.5851C38.6856 55.5435 38.7018 55.5036 38.73 55.473C38.7583 55.4423 38.7967 55.4231 38.8381 55.4189C38.8795 55.4147 38.921 55.4258 38.9548 55.4501C39.2481 55.7031 39.5265 55.9672 39.7937 56.2463L42.6297 58.9436C42.7399 59.0692 42.8914 59.1511 43.0566 59.1743C43.0716 59.1749 43.0866 59.1718 43.1002 59.1654C43.1138 59.1589 43.1256 59.1492 43.1346 59.1371C43.2199 59.0478 43.1346 58.8469 43.0121 58.6832C41.769 56.9348 40.2984 55.3608 38.6393 54.0028C38.6089 53.9739 38.5902 53.9347 38.5868 53.8929C38.5833 53.851 38.5953 53.8093 38.6206 53.7758C38.6458 53.7422 38.6824 53.7191 38.7235 53.7109C38.7647 53.7027 38.8073 53.7099 38.8435 53.7312C39.526 54.2074 40.277 54.5762 41.0707 54.8251C41.3305 54.9069 41.4679 54.8734 41.4939 54.8251C41.5198 54.7767 41.4939 54.613 41.312 54.4195C40.7969 53.8898 40.234 53.4091 39.6304 52.9834C38.4444 52.0916 37.1527 51.3505 35.7848 50.7771C33.6058 49.8656 31.4269 49.6312 29.1032 49.3819L28.3793 49.3001C28.3573 49.2978 28.336 49.2911 28.3166 49.2805C28.2972 49.2699 28.2801 49.2555 28.2663 49.2382C28.2525 49.2209 28.2422 49.201 28.2361 49.1797C28.2301 49.1584 28.2282 49.1361 28.2308 49.1141C28.2331 49.092 28.2398 49.0707 28.2504 49.0512C28.261 49.0318 28.2753 49.0146 28.2926 49.0008C28.3099 48.987 28.3297 48.9767 28.351 48.9706C28.3722 48.9645 28.3945 48.9627 28.4164 48.9653L29.1588 49.0434C31.4937 49.2964 33.6949 49.5345 35.9184 50.4646C37.3122 51.0433 38.6289 51.7931 39.8383 52.6969C40.4588 53.1393 41.0378 53.6374 41.5681 54.1851C41.8354 54.4753 41.917 54.7916 41.7834 55.0036C41.7054 55.1227 41.4976 55.3013 40.9742 55.1376C40.6721 55.045 40.3759 54.9345 40.087 54.8064C41.2738 55.9195 42.347 57.1484 43.2905 58.4749C43.5466 58.8469 43.58 59.1483 43.3907 59.3566C43.3502 59.4014 43.301 59.4373 43.2461 59.4623C43.1912 59.4872 43.1317 59.5007 43.0715 59.5017L43.0677 59.5501Z" fill="#231F20"/>
<path d="M57.0583 58.9734L62.4742 44.4448L40.3543 44.8838L35.395 61.4513L57.0583 58.9734Z" fill="white"/>
<path d="M35.395 61.6485C35.368 61.6488 35.3412 61.6429 35.3168 61.6313C35.2923 61.6197 35.2708 61.6027 35.2539 61.5816C35.2345 61.5581 35.221 61.5303 35.2145 61.5005C35.208 61.4707 35.2088 61.4398 35.2168 61.4104L40.1761 44.843C40.1881 44.8055 40.2113 44.7726 40.2424 44.7487C40.2736 44.7248 40.3113 44.711 40.3505 44.7091L62.4704 44.27C62.5008 44.2696 62.5308 44.2765 62.5579 44.2901C62.585 44.3036 62.6085 44.3236 62.6263 44.3482C62.6425 44.3732 62.6529 44.4016 62.6567 44.4312C62.6606 44.4608 62.6578 44.4909 62.6486 44.5193L57.2328 59.0293C57.2207 59.0622 57.1997 59.0911 57.1721 59.1128C57.1446 59.1344 57.1117 59.148 57.0769 59.1521L35.4173 61.6485H35.395ZM40.4953 45.0774L35.6697 61.2467L56.9395 58.8135L62.218 44.6458L40.4953 45.0774Z" fill="#231F20"/>
<path d="M55.8779 59.1073C55.8779 59.1073 61.8802 63.9923 59.7718 68.4718C57.6634 72.9513 19.3108 78.0707 19.3108 78.0707L17.5847 72.2146C17.5847 72.2146 47.6706 56.8117 55.8779 59.1073Z" fill="#231F20"/>
<path d="M19.3109 78.2568C19.2709 78.2563 19.2321 78.243 19.2 78.2189C19.168 78.1949 19.1445 78.1612 19.1327 78.1229L17.4066 72.2668C17.3934 72.2257 17.3955 72.1812 17.4126 72.1415C17.4297 72.1018 17.4605 72.0697 17.4994 72.051C17.5736 72.0101 25.1202 68.1594 33.5761 64.6324C44.9535 59.8887 52.4703 57.9689 55.9151 58.9288C55.941 58.936 55.965 58.9487 55.9856 58.966C57.033 59.858 57.9635 60.8793 58.7548 62.0057C60.4103 64.3943 60.8112 66.6563 59.9129 68.5538C57.7674 73.0705 20.9033 78.0448 19.3369 78.2531L19.3109 78.2568ZM17.8038 72.304L19.4445 77.855C22.1246 77.483 57.5855 72.5794 59.5788 68.3864C61.5388 64.2492 56.238 59.6469 55.7777 59.2711C47.9751 57.1839 20.0533 71.1879 17.8261 72.3115L17.8038 72.304Z" fill="#231F20"/>
<path d="M15.5988 56.8639C15.5988 56.8639 45.3803 68.9332 52.7635 72.1179L48.4724 78.7628C48.4724 78.7628 20.9738 78.2233 13.0895 71.2994C5.20518 64.3756 5.72857 52.8495 15.5988 56.8639Z" fill="#231F20"/>
<path d="M48.4725 78.9563C48.4056 78.9563 41.4976 78.8112 33.7172 77.8215C23.2493 76.4859 16.2707 74.3428 12.9707 71.4446C8.84296 67.8208 5.9513 61.4587 8.22305 57.7643C8.96546 56.5365 10.9477 54.7693 15.6768 56.6891C15.9737 56.8118 45.5437 68.7993 52.8452 71.9431C52.8701 71.9533 52.8924 71.9689 52.9104 71.9889C52.9283 72.0088 52.9416 72.0326 52.9491 72.0585C52.9566 72.0846 52.9585 72.112 52.9546 72.139C52.9508 72.1659 52.9413 72.1917 52.9269 72.2147L48.6358 78.8707C48.6184 78.898 48.5941 78.9202 48.5655 78.9352C48.5368 78.9503 48.5048 78.9575 48.4725 78.9563ZM11.9425 56.2166C10.4169 56.2166 9.24757 56.8044 8.53486 57.9577C6.78279 60.8114 8.24161 66.8014 13.212 71.1655C20.714 77.7546 46.5199 78.5359 48.3722 78.5805L52.4926 72.1998C44.8681 68.9258 15.829 57.1541 15.532 57.0351C14.3983 56.536 13.18 56.2582 11.9425 56.2166Z" fill="#231F20"/>
<path d="M57.1734 53.1731C57.2054 53.3448 57.2794 53.5059 57.3887 53.6419L57.9678 54.5088C57.9466 54.4192 57.9061 54.3354 57.8491 54.2632C57.7921 54.1911 57.72 54.1323 57.6379 54.0912C57.5557 54.05 57.4656 54.0274 57.3738 54.025C57.282 54.0226 57.1908 54.0404 57.1066 54.0772C56.9421 54.1664 56.8055 54.2994 56.7118 54.4616C56.6181 54.6238 56.571 54.8088 56.5758 54.9962C56.5924 55.3704 56.6806 55.738 56.8356 56.0788C57.2476 57.1503 58.1794 58.7167 59.5268 57.9056C60.44 57.355 60.6924 55.4129 60.8223 54.4455C61.0785 52.5406 60.4957 50.0925 58.0531 50.4646C58.1236 51.4026 58.4727 52.298 59.0554 53.0355C58.6582 52.6485 57.0509 52.0495 57.1734 53.1731Z" fill="white"/>
<path d="M58.7807 58.3001C58.6315 58.3012 58.4833 58.276 58.3427 58.2257C57.463 57.9244 56.9136 56.7896 56.6649 56.1385C56.5029 55.7772 56.411 55.3883 56.3939 54.9926C56.3878 54.7726 56.4443 54.5554 56.5567 54.3664C56.6691 54.1773 56.8328 54.0242 57.0287 53.9248C57.1196 53.8833 57.2183 53.8618 57.3182 53.8616L57.2365 53.7388C57.1098 53.5789 57.0255 53.3895 56.9915 53.1882C56.962 53.0404 56.9825 52.887 57.0497 52.7522C57.1169 52.6175 57.2271 52.509 57.3627 52.4441C57.7434 52.3263 58.1543 52.3569 58.5135 52.5296C58.1568 51.905 57.9438 51.2085 57.8898 50.4908C57.8874 50.4479 57.9008 50.4056 57.9275 50.372C57.9542 50.3383 57.9924 50.3157 58.0346 50.3085C58.4061 50.227 58.7918 50.2373 59.1584 50.3384C59.5251 50.4395 59.8617 50.6284 60.1393 50.8889C61.0117 51.7521 61.1564 53.3072 60.9968 54.4792C60.852 55.5507 60.5922 57.4742 59.6197 58.062C59.368 58.2192 59.0772 58.3017 58.7807 58.3001ZM57.3405 54.2076C57.2807 54.2068 57.2213 54.2182 57.166 54.2411C57.0309 54.3168 56.9193 54.4285 56.8433 54.5637C56.7673 54.6989 56.73 54.8524 56.7354 55.0075C56.75 55.36 56.8333 55.7063 56.9804 56.0269C57.166 56.5031 57.6783 57.6453 58.4652 57.9132C58.6276 57.9652 58.7997 57.9792 58.9683 57.9541C59.1369 57.9289 59.2976 57.8653 59.4378 57.7681C60.273 57.2658 60.5254 55.3758 60.6479 54.468C60.8001 53.3519 60.6776 51.9009 59.9055 51.1196C59.6864 50.9129 59.4228 50.7594 59.1351 50.671C58.8474 50.5826 58.5433 50.5617 58.2462 50.6099C58.3417 51.4567 58.6722 52.2597 59.2002 52.9277C59.2273 52.9612 59.2405 53.0038 59.2371 53.0468C59.2336 53.0898 59.2138 53.1297 59.1816 53.1584C59.15 53.1882 59.1082 53.2048 59.0647 53.2048C59.0213 53.2048 58.9794 53.1882 58.9478 53.1584C58.6991 52.9128 57.8787 52.5631 57.5112 52.7417C57.4296 52.7789 57.3256 52.8645 57.3516 53.1547C57.384 53.2981 57.4474 53.4327 57.5372 53.5491L57.849 54.0104C57.9308 54.0635 57.9998 54.1341 58.0511 54.2171C58.1024 54.3 58.1348 54.3933 58.146 54.4903C58.1499 54.5283 58.1411 54.5665 58.1209 54.5988C58.1008 54.6312 58.0704 54.6559 58.0346 54.6689C57.9991 54.6817 57.9603 54.682 57.9246 54.6698C57.8889 54.6577 57.8583 54.6337 57.8379 54.602L57.6077 54.2597C57.5247 54.2193 57.4326 54.2014 57.3405 54.2076Z" fill="#231F20"/>
<path d="M48.8102 70.7414C48.7869 70.7449 48.7631 70.7449 48.7397 70.7414C48.0901 70.4884 32.7372 64.5318 29.2776 62.4074C29.2346 62.3805 29.2038 62.3378 29.192 62.2883C29.1802 62.2389 29.1883 62.1868 29.2145 62.1433C29.2274 62.1216 29.2446 62.1026 29.2649 62.0876C29.2853 62.0726 29.3084 62.0619 29.333 62.056C29.3575 62.0501 29.383 62.0492 29.4079 62.0533C29.4328 62.0575 29.4567 62.0665 29.478 62.08C32.9079 64.1858 48.7174 70.321 48.8771 70.3805C48.9247 70.3988 48.9632 70.4353 48.9841 70.4821C49.005 70.5288 49.0065 70.5819 48.9884 70.6298C48.973 70.6639 48.9479 70.6927 48.9162 70.7126C48.8845 70.7325 48.8476 70.7425 48.8102 70.7414Z" fill="white"/>
<path d="M30.9035 46.4465C34.2882 46.4465 37.032 43.8429 37.032 40.6313C37.032 37.4197 34.2882 34.8162 30.9035 34.8162C27.5188 34.8162 24.775 37.4197 24.775 40.6313C24.775 43.8429 27.5188 46.4465 30.9035 46.4465Z" fill="#231F20"/>
<path d="M30.9035 46.6288C27.4216 46.6288 24.593 43.9388 24.593 40.6313C24.593 37.3238 27.4253 34.6301 30.9035 34.6301C34.3816 34.6301 37.2139 37.3238 37.2139 40.6313C37.2139 43.9388 34.3853 46.6288 30.9035 46.6288ZM30.9035 35.0022C27.6258 35.0022 24.9642 37.5284 24.9642 40.6313C24.9642 43.7342 27.6295 46.2567 30.9035 46.2567C34.1775 46.2567 36.8427 43.7342 36.8427 40.6313C36.8427 37.5284 34.1812 35.0022 30.9035 35.0022Z" fill="#231F20"/>
<path d="M27.6703 42.5214L26.1855 41.6508V40.5012L27.6703 39.6306C28.1653 39.3454 28.6602 39.0552 29.1551 38.76V40.1515C28.8916 40.3152 28.628 40.4752 28.3645 40.6277C28.1009 40.7802 27.8411 40.9365 27.5738 41.1039L28.3645 41.543L29.1551 41.9857V43.392L27.6703 42.5214Z" fill="white"/>
<path d="M29.5746 43.7602L31.3229 37.093L32.2361 37.506L30.4803 44.162L29.5746 43.7602Z" fill="white"/>
<path d="M34.1589 39.6306L35.6437 40.5012V41.6508L34.1589 42.5214L32.6741 43.392V41.9857L33.4648 41.543L34.2554 41.1039C33.9919 40.9365 33.7283 40.7765 33.4648 40.6277C33.2012 40.4789 32.9414 40.3152 32.6741 40.1515V38.76L34.1589 39.6306Z" fill="white"/>
<path d="M18.1973 56.8118C18.1481 56.8147 18.0997 56.798 18.0628 56.7652C18.0259 56.7324 18.0035 56.6863 18.0005 56.6369C17.9976 56.5876 18.0143 56.5391 18.047 56.5021C18.0797 56.4651 18.1258 56.4427 18.175 56.4397L27.0838 55.3571L28.4981 48.21L17.0837 47.2426C17.0564 47.2408 17.0299 47.2328 17.0061 47.2193C16.9823 47.2058 16.9619 47.187 16.9463 47.1645C16.9297 47.1425 16.9183 47.117 16.9132 47.0899C16.908 47.0628 16.9092 47.0348 16.9166 47.0082L21.6086 29.4996C21.6214 29.4502 21.6532 29.408 21.6971 29.3822C21.741 29.3564 21.7933 29.3491 21.8425 29.3619C21.8917 29.3747 21.9338 29.4066 21.9596 29.4506C21.9853 29.4945 21.9926 29.547 21.9798 29.5963L17.3435 46.8929L28.7283 47.8379C28.7544 47.8408 28.7796 47.8488 28.8026 47.8616C28.8255 47.8744 28.8457 47.8916 28.8619 47.9123C28.8774 47.9335 28.8884 47.9576 28.8942 47.9832C28.8999 48.0088 28.9003 48.0354 28.8953 48.0612L27.4105 55.5431C27.4024 55.5814 27.3828 55.6162 27.3542 55.6428C27.3256 55.6695 27.2895 55.6866 27.2509 55.6919L18.1973 56.7895V56.8118Z" fill="#231F20"/>
</svg>
