<svg width="113" height="81" viewBox="0 0 113 81" fill="none" xmlns="http://www.w3.org/2000/svg">
<path d="M18.8725 58.7398H28.6281C31.0652 58.7398 33.0324 57.1359 33.0324 55.1613C33.0324 53.3261 31.3404 51.825 29.1603 51.6084C29.2181 51.368 29.2477 51.1216 29.2484 50.8744C29.2484 48.797 27.1747 47.116 24.6165 47.116C23.9327 47.1135 23.2545 47.2379 22.6162 47.483C22.6162 47.4426 22.6162 47.3986 22.6162 47.3582C22.6162 45.2808 20.5425 43.5999 17.9843 43.5999C16.0867 43.5999 14.4571 44.5248 13.7414 45.8497C13.2354 45.7682 12.7235 45.7276 12.2109 45.7286C8.12589 45.7286 4.78593 48.2978 4.52901 51.5717C2.12131 51.5974 0.176056 53.1866 0.176056 55.1502C0.176056 57.1138 2.15434 58.7288 4.5804 58.7288" fill="white"/>
<path d="M28.6282 58.9233H18.8726C18.8239 58.9233 18.7772 58.904 18.7428 58.8695C18.7084 58.8351 18.6891 58.7885 18.6891 58.7398C18.6891 58.6911 18.7084 58.6444 18.7428 58.61C18.7772 58.5756 18.8239 58.5563 18.8726 58.5563H28.6282C30.9588 58.5563 32.8564 57.0331 32.8564 55.1613C32.8564 53.4509 31.2635 52.0011 29.1494 51.7919C29.1229 51.7901 29.0972 51.7822 29.0743 51.7688C29.0514 51.7555 29.0319 51.737 29.0173 51.7149C29.0027 51.6936 28.9926 51.6697 28.9876 51.6445C28.9825 51.6192 28.9826 51.5932 28.9879 51.568C29.0426 51.3433 29.0709 51.113 29.0723 50.8817C29.0723 48.9108 27.0757 47.3068 24.6239 47.3068C23.9619 47.3075 23.3059 47.432 22.6897 47.6739C22.6614 47.6851 22.6308 47.689 22.6006 47.6851C22.5704 47.6813 22.5417 47.6698 22.5172 47.6519C22.4926 47.6336 22.4728 47.6098 22.4594 47.5823C22.446 47.5549 22.4394 47.5246 22.4401 47.494V47.4353C22.4418 47.4158 22.4418 47.3961 22.4401 47.3766C22.4401 45.4056 20.4471 43.8017 17.9917 43.8017C16.219 43.8017 14.6187 44.6459 13.9104 45.9562C13.8925 45.99 13.8644 46.0174 13.8302 46.0345C13.796 46.0516 13.7573 46.0576 13.7195 46.0516C13.2232 45.9708 12.7212 45.9302 12.2184 45.9305C8.2618 45.9305 4.96955 48.4226 4.71997 51.6048C4.71716 51.6505 4.69698 51.6935 4.66356 51.7249C4.63013 51.7562 4.58598 51.7737 4.54013 51.7736C2.23886 51.7993 0.367013 53.3224 0.367013 55.1686C0.367013 57.0147 2.26455 58.5636 4.59885 58.5636C4.64752 58.5636 4.6942 58.5829 4.72862 58.6174C4.76303 58.6518 4.78237 58.6985 4.78237 58.7471C4.78237 58.7958 4.76303 58.8425 4.72862 58.8769C4.6942 58.9113 4.64752 58.9306 4.59885 58.9306C2.06268 58.9306 -1.52588e-05 57.2423 -1.52588e-05 55.1686C-1.52588e-05 53.1646 1.94524 51.4983 4.37129 51.4102C4.73832 48.107 8.14068 45.5635 12.2184 45.5635C12.6987 45.5621 13.1785 45.5977 13.6534 45.6699C14.4536 44.3082 16.1382 43.4347 17.9917 43.4347C20.594 43.4347 22.719 45.1304 22.8071 47.2371C23.3909 47.0443 24.0018 46.9464 24.6166 46.9472C27.2702 46.9472 29.432 48.7162 29.432 50.889C29.4311 51.0798 29.4139 51.2701 29.3806 51.4579C31.5828 51.7589 33.2161 53.3224 33.2161 55.1686C33.2234 57.235 31.1607 58.9233 28.6282 58.9233Z" fill="#D1D3D4"/>
<path d="M59.6421 80.6513C80.7132 80.6513 97.7947 63.5698 97.7947 42.4987C97.7947 21.4276 80.7132 4.34607 59.6421 4.34607C38.571 4.34607 21.4895 21.4276 21.4895 42.4987C21.4895 63.5698 38.571 80.6513 59.6421 80.6513Z" fill="white"/>
<path d="M59.6421 4.35343C67.1924 4.3498 74.5742 6.5854 80.8538 10.7775C87.1334 14.9695 92.0287 20.9298 94.9205 27.9043C97.8124 34.8788 98.571 42.5543 97.1002 49.9599C95.6294 57.3656 91.9955 64.1687 86.6579 69.5089C81.3203 74.849 74.5189 78.4862 67.114 79.9606C59.709 81.4349 52.0332 80.68 45.0573 77.7915C38.0814 74.903 32.1188 70.0105 27.9237 63.733C23.7286 57.4554 21.4895 50.0747 21.4895 42.5244C21.4895 32.4008 25.5111 22.6919 32.6695 15.5334C39.828 8.375 49.5369 4.35343 59.6604 4.35343H59.6421ZM59.6604 4.01943C52.0465 4.0158 44.6026 6.27041 38.2703 10.4981C31.9379 14.7257 27.0017 20.7364 24.0859 27.7699C21.1702 34.8034 20.406 42.5437 21.89 50.0116C23.374 57.4795 27.0394 64.3395 32.4228 69.7239C37.8061 75.1082 44.6654 78.775 52.133 80.2604C59.6006 81.7458 67.341 80.9831 74.3751 78.0687C81.4091 75.1543 87.4208 70.2192 91.6497 63.8877C95.8785 57.5561 98.1346 50.1126 98.1324 42.4987C98.1198 32.2943 94.0605 22.5115 86.8449 15.2959C79.6293 8.08032 69.8465 4.02105 59.6421 4.00842L59.6604 4.01943Z" fill="#231F20"/>
<path d="M88.252 17.2545C87.9721 17.362 87.6659 17.3812 87.3748 17.3095L87.8849 16.8324C87.1949 16.0726 86.4682 15.3423 85.7195 14.6302C85.7397 14.9117 85.829 15.1839 85.9794 15.4226C86.1299 15.6614 86.3368 15.8595 86.582 15.9992C85.7745 16.047 85.1469 15.5661 84.4422 15.3533C83.6014 15.1474 82.7498 14.9881 81.8914 14.8761L83.1576 15.7827C82.9177 15.874 82.6725 15.9512 82.4236 16.0139C82.1887 15.5037 81.8804 15.9185 81.6051 15.9038C80.9811 15.8671 80.2985 16.5975 79.825 15.8414C79.6021 15.8692 79.3822 15.9171 79.168 15.9846C78.5819 16.1695 78.0229 16.4312 77.5054 16.7627C76.9328 17.2251 76.753 17.2765 76.3089 16.5975L76.8924 16.3956V16.1571L75.7069 15.9038C75.6599 16.1838 75.6427 16.468 75.6556 16.7516C75.706 16.9316 75.7867 17.1016 75.8941 17.2545C75.5449 17.2849 75.198 17.3376 74.8554 17.4123C74.5289 17.5276 74.209 17.6611 73.8975 17.8124L74.1838 18.4033L72.6019 18.1464L72.5835 18.3005L73.1928 18.6969C72.2826 18.9685 71.7247 18.495 71.7247 17.5664L70.9503 17.1517C71.227 17.1272 71.5058 17.161 71.7687 17.2508C72.6239 17.4417 73.4901 17.6545 74.3379 17.2251C74.771 17.0049 74.749 16.6929 74.3379 16.4911C73.8305 16.213 73.297 15.9855 72.745 15.8121C71.7797 15.5368 70.7924 15.3459 69.8088 15.1184C69.8565 15.045 69.9116 14.9532 69.9703 14.8651C69.5164 14.7354 69.0541 14.6373 68.5866 14.5715C68.3027 14.6109 68.0281 14.7004 67.7755 14.8358C67.8562 14.6669 67.9039 14.5568 68.0177 14.3146C67.5552 14.5311 67.1845 14.8688 66.9166 14.8064C66.3037 14.6669 65.8155 15.1441 65.2026 15.0193C64.8356 14.9495 64.3658 15.4854 64.1015 15.6542C63.8108 15.6893 63.5243 15.7532 63.2463 15.8451C62.9856 16.0103 62.74 16.1982 62.5123 16.4066L63.4812 16.1717C63.0445 16.7149 62.5747 17.3536 62.0461 17.9371C61.6791 18.3409 61.2901 18.8621 60.8166 18.9905C60.1702 19.1849 59.5766 19.5237 59.0806 19.9815C58.9862 20.0844 58.914 20.2056 58.8686 20.3375C58.8231 20.4695 58.8053 20.6094 58.8163 20.7486C58.88 21.1545 58.9921 21.5512 59.1503 21.9304C59.2375 22.1364 59.3999 22.3014 59.6044 22.3921C59.8089 22.4827 60.0402 22.4922 60.2514 22.4186C60.6184 22.2314 61.1102 21.7726 61.3525 21.879C61.6938 22.0369 61.859 22.5874 62.0865 22.9801C62.1342 23.0609 62.1746 23.1453 62.215 23.226C62.4315 23.6775 62.4058 24.7382 63.25 23.6444C63.9327 23.7913 63.9363 23.2334 63.9841 22.8517C63.9857 22.6651 64.0347 22.482 64.1265 22.3196C64.2183 22.1571 64.3499 22.0207 64.5089 21.9231C64.6073 21.889 64.6934 21.8266 64.7564 21.7438C64.8195 21.661 64.8567 21.5614 64.8634 21.4575C64.87 21.3536 64.8459 21.2501 64.7939 21.1599C64.7419 21.0697 64.6645 20.9968 64.5713 20.9505C64.0464 20.5834 63.9877 20.2164 64.4392 19.7429C64.6814 19.486 65.0448 19.3465 65.309 19.1043C65.5733 18.8621 65.7164 18.5391 65.9807 18.3299C66.2812 18.0701 66.6306 17.8729 67.0084 17.75C67.2249 17.6912 67.5112 17.8931 67.8268 17.9959C67.2029 18.4877 66.7258 18.851 66.2743 19.2217C66.0174 19.4273 65.7128 20.6899 65.9477 20.8183C66.3796 21.0789 66.8655 21.2371 67.3681 21.2808C67.8085 21.3065 68.2599 21.0606 68.7114 20.9982C68.9361 21.0059 69.1581 21.0505 69.3684 21.1303V21.4092C68.972 21.4459 68.5793 21.479 68.1865 21.5193C67.8749 21.5355 67.5647 21.5722 67.2579 21.6295C66.8359 21.7212 66.7808 21.9965 67.0744 22.2718C67.4415 22.6388 67.3387 22.8774 67.0231 23.1563C66.2266 22.5067 66.0504 22.5727 65.8632 23.5784C65.8413 23.8115 65.8413 24.0462 65.8632 24.2794C65.5403 24.4189 65.1292 24.7419 64.942 24.6464C64.1088 24.2464 63.5546 24.9878 62.8169 25.0428C62.593 24.4629 62.1746 24.8189 61.7929 24.8263C61.5358 24.7946 61.2961 24.6799 61.1102 24.4996C61.0075 24.4115 60.9377 24.0959 61.0038 24.0261C61.1639 23.8588 61.2698 23.647 61.3078 23.4185C61.3458 23.19 61.314 22.9554 61.2167 22.7452C60.211 23.2958 60.2183 23.2958 60.4532 24.3234C60.4903 24.5342 60.5039 24.7484 60.4936 24.9621L59.0035 25.5567C58.5263 26.0301 58.185 26.3715 57.84 26.7055C57.7189 26.8266 57.5354 26.9037 57.473 27.0431C57.4161 27.1809 57.3318 27.3057 57.2253 27.41C57.1188 27.5142 56.9922 27.5958 56.8532 27.6496C56.7142 27.7035 56.5657 27.7286 56.4167 27.7234C56.2678 27.7182 56.1214 27.6828 55.9865 27.6194C56.0122 27.8249 56.0379 28.0231 56.0636 28.2433L54.7423 28.1846C55.1219 28.6659 55.5353 29.1197 55.9792 29.5426C56.5077 30.1482 56.0746 30.7942 55.9792 31.4108C54.8781 31.4988 53.755 30.985 52.6759 31.6347C53.2852 32.8752 52.2648 34.1635 52.9989 35.3783L53.7329 35.2903C53.9165 35.5325 54.078 35.7454 54.166 35.8665C55.2671 35.6059 56.3682 35.4481 56.6875 34.4865C56.6875 34.1194 56.6031 33.8405 56.6875 33.701C56.9444 33.334 57.2895 33.0587 57.5757 32.7284C57.7703 32.5045 58.0896 32.2476 58.0786 32.02C58.0419 31.3043 58.4713 31.3447 58.864 31.5025C59.0307 31.5929 59.2233 31.624 59.41 31.5907C59.5967 31.5573 59.7665 31.4615 59.8917 31.319C60.1402 31.1216 60.4027 30.9425 60.6771 30.7831C60.8643 31.0217 61.0442 31.2786 61.257 31.5172C61.5805 31.9518 61.9496 32.3505 62.3581 32.7064C63.0922 33.2312 63.9363 33.6166 63.628 34.7874L64.1419 34.0827L63.9033 33.2459L64.7291 33.6129C64.7034 33.4771 64.7291 33.3817 64.6777 33.3597C64.1896 33.0367 63.896 32.4568 63.261 32.3173C63.0717 32.2341 62.9127 32.0944 62.8059 31.9173C62.6187 31.6714 62.4976 31.3741 62.3031 31.1355C61.8149 30.5446 61.903 30.2289 62.571 30.0344C62.6288 30.1853 62.7052 30.3283 62.7985 30.4602C62.872 30.5409 63.0995 30.5336 63.1179 30.6033C63.294 31.2676 63.8519 31.4658 64.3731 31.7741C64.6887 31.9686 65.1072 32.343 65.1072 32.6366C65.1072 33.98 66.0688 34.8021 66.5386 35.8665C66.7458 35.5653 66.9275 35.2473 67.0818 34.9159C67.1348 34.703 67.1115 34.4783 67.0157 34.2809C66.856 33.9789 66.6758 33.6883 66.4762 33.4111C66.7808 33.4294 67.0598 33.5285 67.1662 33.4368C67.6874 32.967 67.6727 32.9523 68.1241 33.2129C68.0874 33.7047 68.0544 34.1194 68.0287 34.4865C68.2306 34.7874 68.3957 35.2462 68.6747 35.382C69.0417 35.5472 69.339 36.1785 69.9629 35.6279C70.1575 35.4554 70.8145 35.8041 71.2586 35.9105C71.2819 35.9109 71.3048 35.9045 71.3246 35.8922L72.4551 35.3747C72.2202 36.4097 72.0367 37.2318 71.8495 38.054C71.7284 38.5825 71.5265 38.9789 70.8622 38.9972C70.6052 38.9972 70.3557 39.2799 70.2272 39.3643L71.2622 40.4654L70.7484 40.8471C70.7704 40.9168 70.7924 40.9829 70.8181 41.0489L71.8128 40.748C71.9486 40.9902 72.1394 41.2912 72.2972 41.6105C72.5652 42.15 72.8184 42.7116 73.0607 43.2511C73.2552 43.6952 73.4277 44.1467 73.6075 44.6018C73.7323 44.9321 73.7837 45.2918 73.9379 45.6038C74.1351 45.9594 74.3559 46.3014 74.5985 46.6278C75.2812 47.6187 75.2628 48.7896 75.461 49.9053C75.5308 50.298 75.6996 50.4449 76.063 50.2724C76.7176 49.9693 77.3547 49.6298 77.9715 49.2557C78.6211 48.8299 79.168 48.25 79.836 47.8573C80.4558 47.5447 81.0015 47.1029 81.4363 46.5617C81.55 46.4002 81.6381 46.2204 81.7446 46.0515C81.8343 45.8696 81.9426 45.6974 82.0675 45.5377C82.8346 44.6935 82.6768 43.9485 81.6528 43.4456C81.4457 43.3173 81.2909 43.1196 81.216 42.8877C81.1522 42.591 81.119 42.2884 81.1169 41.9849C80.8273 42.2919 80.5679 42.6263 80.3425 42.9832C80.0489 43.5667 79.5791 43.2107 79.19 43.2878C79.1497 43.0456 79.113 42.7997 79.0653 42.5537C79.0359 42.3959 78.9992 42.2381 78.9184 41.8894L78.6505 42.5244L77.476 40.0139C78.1036 39.3129 78.2358 39.3276 78.6762 40.1791C78.7388 40.2979 78.794 40.4204 78.8414 40.5461C78.9216 40.7827 79.0521 40.9991 79.2239 41.1806C79.3956 41.362 79.6046 41.5041 79.8364 41.5972C80.0683 41.6903 80.3175 41.7321 80.5671 41.7199C80.8166 41.7076 81.0605 41.6415 81.2821 41.5261C81.6088 42.3372 81.6748 42.44 82.6034 42.4987C83.532 42.5574 84.5046 42.4987 85.3525 42.4987L86.9086 44.2678L86.4646 44.4513L87.4886 45.3395L88.0171 44.6972C88.2556 45.9855 88.4575 47.4793 88.8282 48.9364C89.1499 50.4132 89.6183 51.8543 90.2266 53.2379C91.1133 52.2015 91.5586 50.8589 91.4671 49.4979C91.4137 49.1625 91.457 48.8187 91.5919 48.507C91.9223 48.0188 92.4618 47.6738 92.7774 47.182C93.2656 46.4186 94.2456 46.0295 94.4144 45.0312C94.4364 44.9027 94.7117 44.7779 94.8915 44.7339C95.387 44.6054 95.8972 44.5174 96.4184 44.4109C96.4815 44.7951 96.6054 45.1668 96.7854 45.512C97.0935 45.9185 97.3511 46.361 97.5525 46.8296C98.1574 41.5236 97.6422 36.1497 96.0401 31.0553C94.4381 25.9609 91.7849 21.2593 88.252 17.2545Z" fill="#34A853"/>
<path d="M35.3705 71.9344C35.4867 71.6929 35.5612 71.4336 35.5907 71.1673C35.6384 70.5213 35.8513 70.0882 36.3872 69.8423C37.0148 69.556 37.6828 69.3652 38.3288 69.1082C38.4795 69.068 38.6141 68.9821 38.7141 68.8623C39.0455 68.3364 39.3082 67.7703 39.4959 67.1777C39.6432 66.3525 39.7388 65.519 39.7822 64.6819C39.7801 64.5896 39.7989 64.498 39.8372 64.4139C40.1676 63.9845 40.5493 63.5881 40.8429 63.133C41.1365 62.6779 41.6283 62.0833 41.6577 61.5364C41.677 61.3769 41.6634 61.2151 41.6177 61.0611C41.572 60.907 41.4952 60.764 41.3919 60.6408C41.2887 60.5176 41.1613 60.417 41.0177 60.345C40.874 60.2731 40.7171 60.2314 40.5566 60.2225C40.4455 60.1905 40.3501 60.1186 40.2887 60.0206C39.5546 59.015 38.4535 59.2388 37.4222 59.2205C37.5139 58.7874 37.2937 58.6479 36.8423 58.5452C35.7926 58.3029 34.9521 57.8111 34.6401 56.6256C34.3208 55.374 33.7042 55.0254 32.3976 54.9519C32.0056 54.8716 31.6399 54.695 31.3332 54.4381C31.0833 54.2341 30.8546 54.0054 30.6505 53.7554C30.5508 53.6218 30.4377 53.4988 30.3128 53.3884C29.9458 53.1388 29.6926 52.603 29.2118 52.7057C28.731 52.8085 28.1914 52.9443 27.6813 52.7057C27.1711 52.4672 26.76 52.2726 26.2131 52.0121L25.703 53.4068C25.3359 52.8599 25.703 52.324 25.7911 51.7551C24.7744 52.3827 23.5889 52.7388 23.365 54.1261L23.2989 54.0858C25.5252 61.0711 29.716 67.2676 35.3705 71.9344Z" fill="#34A853"/>
<path d="M27.7143 30.0858C28.9952 30.3795 29.9495 29.7188 30.9735 29.238C31.0691 29.1917 31.1522 29.1232 31.2161 29.0383C31.2799 28.9534 31.3226 28.8545 31.3405 28.7498C31.3247 28.6259 31.2841 28.5065 31.221 28.3986C31.1579 28.2908 31.0738 28.1968 30.9735 28.1222C30.6863 28.0047 30.3833 27.9305 30.0743 27.902C30.2284 27.8029 30.4046 27.6855 30.4743 27.6451C29.9564 27.3876 29.4647 27.0803 29.0062 26.7275C28.7823 26.5257 28.8557 26.0338 28.6832 25.7365C28.368 25.2295 28.0262 24.7394 27.6592 24.2684C27.3142 24.7492 27.2225 25.6191 26.3856 25.4099C26.1272 25.3569 25.9003 25.2039 25.7544 24.9841C23.4002 29.5347 21.9931 34.5152 21.6179 39.6249C21.7494 39.4838 21.8987 39.3604 22.062 39.2579C23.1044 38.6596 23.1631 38.4724 22.8989 37.2686C22.8594 36.8768 22.8594 36.4821 22.8989 36.0904C23.009 36.4978 23.0861 36.7951 23.1631 37.0961C23.4127 36.6593 23.7687 36.2996 23.8018 35.9142C23.8642 35.2279 24.2055 35.0737 24.7854 35.0627C25.015 35.0371 25.2413 34.9879 25.4607 34.9159L25.2662 34.8278C25.3029 34.4865 25.2148 33.9653 25.3983 33.8442C26.1264 33.4076 26.8802 33.0154 27.6556 32.6697L27.1637 33.7304L27.3362 33.7708L29.7293 32.4935C29.6926 32.4311 29.6595 32.3687 29.6228 32.31L29.3255 32.4789L29.4907 31.9173C29.4382 31.9187 29.387 31.9336 29.342 31.9606C29.297 31.9876 29.2597 32.0258 29.2338 32.0715C28.8007 32.7138 28.5695 32.7651 27.9235 32.3027C27.4427 31.9577 27.2665 31.5686 27.7804 31.0731C27.8281 31.0291 27.7033 30.6804 27.6409 30.6731C27.3714 30.6442 27.0989 30.6654 26.8371 30.7355C26.4879 30.8562 26.146 30.9972 25.8131 31.1576C26.3379 30.6437 26.8921 29.8986 27.7143 30.0858Z" fill="#34A853"/>
<path d="M60.7065 56.0238C60.8865 56.3207 60.9505 56.6736 60.8864 57.0148C60.5891 58.0278 60.5817 58.8756 61.4075 59.7234C61.7558 60.0955 62.0229 60.5359 62.1916 61.0168C62.3603 61.4977 62.427 62.0084 62.3875 62.5165C62.3783 62.6558 62.413 62.7944 62.4866 62.9129C62.8243 63.3644 62.6187 63.691 62.3948 64.1498C61.903 65.1628 61.4296 66.2015 62.1269 67.3907C62.538 68.0917 62.9894 68.789 63.0225 69.7176C63.0015 70.6042 63.3146 71.4662 63.8997 72.1327C64.2667 72.5291 64.6337 73.175 64.5823 73.6669C64.5399 73.9177 64.5804 74.1756 64.6976 74.4014C64.8148 74.6272 65.0024 74.8087 65.232 74.9184C65.442 74.8247 65.6609 74.7521 65.8853 74.7019C66.5147 74.6847 67.1417 74.6184 67.7608 74.5037C69.3133 74.0559 70.0767 72.7236 70.8659 71.4684C71.0127 71.2371 70.9172 70.8554 70.9429 70.4113C71.0347 70.3599 71.2476 70.2278 71.4715 70.1214C71.6074 70.0777 71.7327 70.0062 71.8393 69.9113C71.946 69.8164 72.0316 69.7002 72.0907 69.5703C72.1498 69.4403 72.1811 69.2994 72.1825 69.1567C72.184 69.0139 72.1555 68.8724 72.0991 68.7413C72.0293 68.4991 71.9119 68.2679 71.8532 68.0073C71.8201 67.8715 71.8018 67.6402 71.8752 67.5852C72.3927 67.1117 72.9763 66.6896 73.4681 66.2088C73.7984 65.8932 74.2352 65.5445 74.3196 65.1481C74.4002 64.5359 74.3692 63.9141 74.2278 63.313C74.1618 62.9056 73.8902 62.5312 73.8168 62.1201C73.7434 61.7091 74.0333 61.1549 73.5562 60.7585C73.4974 60.7107 73.5268 60.4648 73.5965 60.3694C74.371 59.3014 74.9949 58.0388 75.9859 57.235C77.2999 56.1706 77.9568 54.7722 78.6799 53.3702C78.8281 52.9466 78.9158 52.5043 78.9405 52.0562C77.9385 52.3095 77.0503 52.5554 76.1511 52.7536C76.0548 52.7569 75.9592 52.737 75.8723 52.6955C75.7854 52.6539 75.7098 52.592 75.6519 52.515C75.5014 52.2618 75.5235 51.8911 75.3436 51.6745C75.017 51.2744 74.5802 50.9625 74.2168 50.5734C74.0072 50.3784 73.842 50.1406 73.7324 49.8761C73.4351 48.9658 72.7561 48.2428 72.6496 47.2114C72.5835 46.5765 72 46.0076 71.71 45.3763C71.3427 44.5965 71.0204 43.7963 70.7447 42.9796C70.5429 42.3814 70.2052 42.4327 69.7281 42.5612C69.3739 42.6812 68.9949 42.709 68.627 42.6419C67.9144 42.4353 67.2136 42.1903 66.5276 41.9079C65.911 41.673 65.4265 41.9409 65.3604 42.5649C65.3201 43.0163 65.1255 43.2622 64.6924 42.9319C64.2593 42.6016 63.4115 42.7851 63.2574 41.9776C63.2574 41.9483 63.0922 41.9776 63.0188 41.9372C62.3655 41.6546 61.4773 42.0143 61.1102 41.3206C61.2901 40.7958 61.4369 40.3554 61.5984 39.8745C61.3001 39.8083 60.9969 39.7666 60.6918 39.7498C59.899 39.7791 59.1063 39.8048 58.3245 39.9112C57.7626 39.9853 57.2125 40.1309 56.6875 40.3443C55.8544 40.6857 55.0506 40.9903 54.3019 40.3884C53.9348 40.7921 53.6412 41.2619 53.2265 41.4895C52.9899 41.6071 52.7911 41.7889 52.6529 42.0141C52.5147 42.2393 52.4425 42.4988 52.4447 42.7631C52.4447 43.6036 52.0043 43.8972 51.3436 44.1027C51.1742 44.151 51.0257 44.2543 50.9215 44.3963C50.5288 45.035 50.1361 45.6773 49.7984 46.3489C49.5635 46.8187 49.1304 47.2188 49.5635 47.9088C49.8168 48.3052 49.7727 49.0099 49.6112 49.5127C49.4066 50.223 49.3553 50.9686 49.4608 51.7002C49.5083 51.8666 49.6011 52.0165 49.7287 52.1333C49.8278 52.2507 49.9819 52.3278 50.0663 52.4489C50.4278 53.0525 50.8275 53.6324 51.2629 54.185C51.7653 54.6603 52.2947 55.1064 52.8484 55.521C52.9939 55.646 53.1722 55.7267 53.3622 55.7533C53.5522 55.78 53.7458 55.7516 53.9201 55.6715C54.4901 55.563 55.0687 55.5065 55.6489 55.5026C55.8732 55.4938 56.096 55.4606 56.3132 55.4035C56.7537 55.2204 57.2033 55.06 57.6602 54.9227C58.119 54.8236 58.7613 54.5337 58.9631 55.2237C59.1576 55.8476 59.51 55.8256 60.0092 55.7779C60.1363 55.7656 60.2646 55.7813 60.385 55.8238C60.5055 55.8662 60.6152 55.9345 60.7065 56.0238Z" fill="#34A853"/>
<path d="M31.8433 16.3773C31.972 16.3329 32.0952 16.2738 32.2103 16.2011L33.3114 16.9829L31.88 16.7773L31.847 16.9902L33.216 17.5041V18.1794L31.6047 19.0346L32.3571 19.6291C32.3194 19.828 32.3194 20.0322 32.3571 20.2311C32.8746 21.2955 33.4032 22.3562 33.9647 23.3949C34.1235 23.6607 34.3486 23.8808 34.618 24.0335C35.0062 24.2351 35.4057 24.414 35.8145 24.5693C36.1228 24.7052 36.4091 24.8593 36.5009 24.3234C36.5926 23.7876 36.7284 23.3141 36.8496 22.8113C36.8716 22.7195 36.9046 22.5911 36.9743 22.558C37.5396 22.2644 37.6423 21.7873 37.6387 21.2C37.6387 21.0092 37.969 20.6385 38.1195 20.6532C39.2206 20.7559 39.9289 20.1907 40.5272 19.3612C40.6923 19.13 40.9713 18.8474 41.2135 18.829C42.6816 18.7409 43.8965 18.095 45.1921 17.3609L43.4487 17.1774L43.9185 16.6122L45.3022 17.1921C45.405 16.458 45.1481 16.135 44.6159 15.9258C44.0213 15.6946 43.9626 15.3753 44.2709 14.9605H45.8675L45.4233 14.41L46.4474 14.2632L45.9959 13.7934C46.7924 13.2502 45.7463 12.9786 45.8087 12.5675L46.8034 12.5051C46.6199 12.2299 46.5208 11.8995 46.3152 11.8078C45.9908 11.7313 45.6564 11.7065 45.3242 11.7344C46.2455 10.358 47.809 9.89922 49.2441 9.23123C48.8591 9.02371 48.4338 8.90185 47.9974 8.87397C47.5609 8.8461 47.1235 8.91288 46.7153 9.06974C45.9744 9.27307 45.2201 9.42393 44.4581 9.52118L44.8251 8.95963C44.5315 8.99266 44.2378 9.02936 43.9406 9.05506C43.7791 9.05506 43.6139 9.05506 43.4487 9.05506L43.4267 8.77245L45.2215 8.47148C44.6122 8.30632 44.0286 8.07509 43.4414 7.95764C39.0801 10.0096 35.1453 12.8661 31.8433 16.3773Z" fill="#34A853"/>
<path d="M26.9838 22.7599C26.9104 22.881 26.8407 23.0058 26.7673 23.1269C26.9141 23.1746 27.0609 23.226 27.2077 23.2847L26.9838 22.7599Z" fill="#34A853"/>
<path d="M29.0685 19.7136H29.0465C28.9327 19.8641 28.8226 20.0146 28.7125 20.1687C28.8336 20.0109 28.9511 19.8604 29.0685 19.7136Z" fill="#34A853"/>
<path d="M27.6518 22.5544C27.7045 22.2931 27.6893 22.0227 27.6078 21.7689C27.4499 22.0148 27.2958 22.2571 27.1416 22.503L27.6518 22.5544Z" fill="#34A853"/>
<path d="M75.6481 68.2824C75.4059 68.8036 75.4756 69.8056 75.894 70.1616C75.9885 70.2468 76.1025 70.3073 76.226 70.3377C76.3495 70.3681 76.4786 70.3674 76.6018 70.3358C76.725 70.3042 76.8385 70.2426 76.9321 70.1565C77.0257 70.0704 77.0965 69.9625 77.1383 69.8423C77.5347 68.5284 77.8723 67.2034 78.2394 65.8821C78.2687 65.783 78.2394 65.6545 78.3091 65.5774C78.4691 65.3359 78.5357 65.0444 78.4965 64.7574C78.4574 64.4704 78.3151 64.2074 78.0962 64.0176C77.3291 64.5901 77.2484 65.8527 75.8683 65.7903C75.8683 66.2381 75.8977 66.6528 75.8683 67.0639C75.8636 67.4795 75.7891 67.8914 75.6481 68.2824Z" fill="#34A853"/>
<path d="M57.2306 26.2247C57.293 26.0558 57.4545 25.8136 57.3958 25.7402C57.2937 25.6476 57.1655 25.5886 57.0288 25.5713C56.4929 24.8373 56.0305 24.195 55.535 23.5123C55.9387 22.7783 55.9204 22.5287 55.3808 22.18C55.0468 21.9598 54.2797 22.2644 53.9457 22.7526C53.7879 22.9765 54.0191 23.4022 54.6137 23.9674L54.5293 24.3969C54.6468 24.3969 54.7312 24.3969 54.7789 24.4299C54.9918 24.5914 55.3074 24.7309 55.3698 24.9437C55.4322 25.1566 55.2377 25.4172 54.8853 25.2704C54.8027 25.3346 54.7424 25.4232 54.7128 25.5236C54.6871 25.7769 54.7128 26.0301 54.7128 26.3458L55.2854 26.5183L54.2724 27.2927L57.0068 26.8559C57.1242 26.5183 57.1682 26.3751 57.2306 26.2247Z" fill="#34A853"/>
<path d="M80.5554 12.4647C80.0405 13.0211 79.4887 13.5423 78.9038 14.0246C79.6378 14.7329 80.5627 14.8284 81.7005 14.7843C81.3885 14.5641 81.128 14.465 81.0105 14.2741C80.8931 14.0833 80.7976 13.7126 80.8967 13.5841C81.4067 12.9758 82.0413 12.4839 82.7576 12.1417C82.5153 11.9582 82.2731 11.7747 82.0235 11.5985C81.4537 11.7217 80.9388 12.0255 80.5554 12.4647Z" fill="#34A853"/>
<path d="M46.0914 22.5618C46.3602 22.6279 46.641 22.6279 46.9099 22.5618C47.3355 22.4522 47.7366 22.2629 48.0917 22.0039C48.356 21.7837 48.9615 21.6038 48.6716 21.1047C48.389 20.7417 48.0566 20.4205 47.6843 20.1504L47.6292 20.3779L45.5408 20.8698L45.0343 20.1908L45.1114 20.4183L44.2012 20.9432L44.2966 21.0606H45.2766L44.3884 21.5267L45.372 21.8094L44.8765 22.1764C45.2876 22.3379 45.684 22.4737 46.0914 22.5618Z" fill="#34A853"/>
<path d="M63.9877 11.0407C64.4354 10.6737 64.8025 10.3654 65.1988 10.0938C65.2712 10.0576 65.351 10.0388 65.4319 10.0388C65.5128 10.0388 65.5926 10.0576 65.665 10.0938C65.7787 10.1708 65.8044 10.3801 65.8852 10.5709H67.2212C67.2212 10.4865 67.2212 10.4021 67.2469 10.3213L63.4958 8.82385C63.6537 9.19088 63.7124 9.30466 63.7234 9.33402L61.4919 9.1395L61.4405 9.37072C61.7216 9.64137 62.0484 9.86007 62.4058 10.0167C62.7324 10.1011 63.1398 9.93228 63.5068 9.87355L63.5289 10.0461L62.681 10.3507L62.7104 10.4681L63.3784 10.5305L62.9269 10.7618L63.9877 11.0407Z" fill="#34A853"/>
<path d="M54.067 24.9695C54.3863 24.7786 54.434 24.5033 54.1183 24.3492C53.8027 24.195 53.4393 23.9124 53.076 24.3492C52.8778 24.5731 52.6429 24.7603 52.3713 25.0135V26.1146L52.1511 26.221C52.2722 26.3201 52.419 26.5183 52.5181 26.4963C53.0174 26.3772 53.5014 26.2011 53.9605 25.9715C54.0743 25.9054 53.9899 25.4833 54.0046 25.2374C53.9972 25.1163 54.0156 25.0025 54.067 24.9695Z" fill="#34A853"/>
<path d="M22.007 46.7488C21.9133 46.7037 21.8148 46.6692 21.7134 46.646L21.7684 47.1268C22.0443 47.2209 22.3129 47.335 22.5722 47.4681C22.8438 47.6039 23.0127 47.9453 23.3063 48.2719L24.5652 48.1288C23.6366 47.6296 22.8365 47.1635 22.007 46.7488Z" fill="#34A853"/>
<path d="M26.9729 49.0648C27.028 48.4482 25.9269 48.0591 24.9286 48.3307L25.4571 48.9363L24.4184 48.8446C25.2369 49.4135 26.1214 48.9951 26.9729 49.0648Z" fill="#34A853"/>
<path d="M68.3443 8.8678H64.8208C65.2806 9.10803 65.7765 9.27167 66.2889 9.35228C66.9742 9.36436 67.6595 9.33249 68.3406 9.25685C68.3443 9.12472 68.3443 8.99626 68.3443 8.8678Z" fill="#34A853"/>
<path d="M91.8047 54.9445C92.0029 54.8675 92.2709 54.4894 92.2195 54.35C92.0247 53.9121 91.79 53.4932 91.5185 53.0984L91.3129 53.1938C91.3129 53.6159 91.3129 54.038 91.3129 54.4564C91.3129 54.8748 91.423 55.095 91.8047 54.9445Z" fill="#34A853"/>
<path d="M60.8092 32.8386L60.3541 33.0258V34.204C61.1358 34.1636 60.7798 33.5323 60.9376 33.1946C60.9743 33.1176 60.8606 32.9818 60.8092 32.8386Z" fill="#34A853"/>
<path d="M63.3417 34.7582H62.0975L62.0608 34.905L63.1985 35.595C63.2499 35.283 63.3013 35.0041 63.3417 34.7582Z" fill="#34A853"/>
<path d="M58.9081 48.8741L57.6088 46.2498C56.2287 43.4604 54.8671 40.6637 53.465 37.8853C52.9269 36.8918 52.6408 35.7815 52.6319 34.6517C52.6548 33.13 53.2293 31.6683 54.2486 30.5382C55.2679 29.408 56.6628 28.6862 58.1741 28.5068C59.6854 28.3274 61.2104 28.7027 62.4659 29.5628C63.7215 30.423 64.6222 31.7095 65.0007 33.1836C65.3841 34.6446 65.2156 36.1957 64.5273 37.5403C63.3699 39.8746 62.2125 42.2076 61.0552 44.5395C60.3749 45.9073 59.6972 47.2763 59.0218 48.6465L58.9081 48.8741ZM58.9081 37.8632C59.5299 37.8654 60.1384 37.683 60.6565 37.3391C61.1746 36.9952 61.579 36.5053 61.8185 35.9314C62.058 35.3575 62.1218 34.7255 62.0018 34.1153C61.8818 33.5052 61.5835 32.9443 61.1445 32.5038C60.7056 32.0633 60.1458 31.763 59.5361 31.6409C58.9263 31.5188 58.294 31.5804 57.7193 31.8178C57.1446 32.0553 56.6533 32.458 56.3076 32.9749C55.9618 33.4918 55.7773 34.0996 55.7773 34.7215C55.7744 35.5541 56.1013 36.3541 56.6867 36.9463C57.272 37.5385 58.0681 37.8748 58.9007 37.8816L58.9081 37.8632Z" fill="#231F20"/>
<path d="M93.8711 36.6703C93.4784 35.8701 93.0967 35.1067 92.7186 34.3396C91.4964 31.8659 90.2852 29.3884 89.0484 26.9257C88.5735 26.043 88.3215 25.0577 88.3143 24.0555C88.3349 22.7051 88.8452 21.4082 89.7504 20.406C90.6556 19.4037 91.8941 18.7644 93.2354 18.6069C94.5767 18.4494 95.9295 18.7844 97.0423 19.5497C98.155 20.315 98.9519 21.4584 99.2848 22.7672C99.627 24.0618 99.4779 25.4372 98.8664 26.6284C97.8387 28.6984 96.8122 30.7672 95.787 32.8348L93.9812 36.4757C93.9445 36.5308 93.9152 36.5859 93.8711 36.6703ZM93.8711 26.922C94.4224 26.9234 94.9617 26.7613 95.4208 26.4561C95.8799 26.1509 96.2381 25.7163 96.45 25.2074C96.662 24.6985 96.7182 24.1382 96.6116 23.5973C96.5049 23.0564 96.2402 22.5594 95.8509 22.169C95.4616 21.7787 94.9652 21.5127 94.4246 21.4046C93.8841 21.2965 93.3236 21.3512 92.8141 21.5619C92.3046 21.7725 91.8691 22.1295 91.5627 22.5878C91.2563 23.0461 91.0927 23.585 91.0927 24.1362C91.0946 24.8732 91.3877 25.5795 91.9082 26.1013C92.4286 26.6231 93.1342 26.9181 93.8711 26.922Z" fill="#231F20"/>
<path d="M38.4902 15.1661C38.1599 14.4981 37.8405 13.8558 37.5249 13.2135C36.4972 11.1398 35.4842 9.06241 34.4419 6.99604C34.0425 6.25711 33.8296 5.43188 33.8216 4.592C33.841 3.4611 34.27 2.37565 35.029 1.53705C35.788 0.698442 36.8254 0.163627 37.9488 0.0318361C39.0721 -0.0999546 40.2051 0.180227 41.1376 0.820393C42.0701 1.46056 42.7387 2.41725 43.0193 3.51294C43.3013 4.60027 43.1706 5.75353 42.6523 6.75013L40.0831 11.9509L38.5746 14.9973L38.4902 15.1661ZM38.4902 6.99604C38.9531 6.99749 39.4059 6.86151 39.7915 6.60533C40.177 6.34916 40.4778 5.98431 40.6558 5.55702C40.8337 5.12972 40.8809 4.65922 40.7912 4.20511C40.7015 3.75101 40.4791 3.33374 40.152 3.00618C39.825 2.67862 39.4081 2.45551 38.9541 2.36512C38.5001 2.27473 38.0295 2.32112 37.602 2.49842C37.1744 2.67572 36.8091 2.97595 36.5523 3.36107C36.2955 3.74619 36.1588 4.19886 36.1595 4.66174C36.1624 5.27867 36.4083 5.86964 36.8438 6.30657C37.2794 6.7435 37.8696 6.99122 38.4865 6.99604H38.4902Z" fill="#231F20"/>
<path d="M33.818 59.3453C33.484 58.6773 33.1684 58.035 32.849 57.3927C31.825 55.319 30.812 53.2416 29.7697 51.1789C29.3689 50.4392 29.1559 49.6124 29.1494 48.7712C29.1688 47.6403 29.5978 46.5548 30.3568 45.7162C31.1158 44.8776 32.1532 44.3428 33.2766 44.211C34.3999 44.0792 35.533 44.3594 36.4654 44.9996C37.3979 45.6398 38.0665 46.5964 38.3471 47.6921C38.6253 48.7797 38.4947 49.9316 37.9801 50.9293L35.4109 56.1338C34.9069 57.1492 34.4028 58.1659 33.8987 59.1838C33.8767 59.2315 33.851 59.2792 33.818 59.3453ZM33.818 51.1752C34.281 51.1774 34.7343 51.0421 35.1203 50.7863C35.5063 50.5306 35.8077 50.166 35.9862 49.7388C36.1647 49.3115 36.2124 48.8409 36.1231 48.3866C36.0339 47.9322 35.8117 47.5146 35.4848 47.1867C35.1579 46.8588 34.741 46.6353 34.2869 46.5446C33.8329 46.4539 33.3621 46.5001 32.9343 46.6773C32.5065 46.8545 32.141 47.1547 31.884 47.5399C31.6271 47.9251 31.4903 48.3779 31.491 48.8409C31.492 49.4572 31.7362 50.0482 32.1706 50.4853C32.605 50.9224 33.1944 51.1704 33.8107 51.1752H33.818Z" fill="#231F20"/>
<path d="M63.3197 46.3158H63.283C63.2594 46.311 63.2369 46.3016 63.217 46.2881C63.197 46.2746 63.1799 46.2573 63.1666 46.2372C63.1533 46.2171 63.1441 46.1946 63.1395 46.1709C63.1349 46.1472 63.135 46.1229 63.1399 46.0993C63.1619 45.9965 65.4228 35.628 76.8447 30.5666C80.6178 28.8967 83.9357 28.6618 86.7031 29.8693C90.5752 31.5576 91.9883 35.5509 92.003 35.5913C92.0183 35.6375 92.015 35.688 91.9938 35.7318C91.9725 35.7757 91.935 35.8095 91.8892 35.8262C91.843 35.8415 91.7925 35.8382 91.7487 35.817C91.7048 35.7957 91.6709 35.7582 91.6543 35.7124C91.6543 35.672 90.278 31.8256 86.5526 30.207C83.8806 29.0472 80.6802 29.282 77.0099 30.908C65.7641 35.8886 63.5363 46.0736 63.5142 46.1764C63.5046 46.2194 63.4794 46.2575 63.4435 46.2832C63.4077 46.3089 63.3636 46.3205 63.3197 46.3158Z" fill="#231F20"/>
<path d="M35.7962 58.993C35.7671 58.9926 35.7384 58.9863 35.7118 58.9746C35.6902 58.9634 35.6711 58.948 35.6555 58.9294C35.6399 58.9107 35.6282 58.8891 35.6211 58.8659C35.6139 58.8427 35.6114 58.8183 35.6137 58.7941C35.6161 58.7699 35.6232 58.7464 35.6347 58.725C43.4267 43.7062 56.5553 48.6538 56.6691 48.7052C56.6932 48.7125 56.7156 48.7247 56.7348 48.7411C56.754 48.7575 56.7697 48.7777 56.7807 48.8004C56.7918 48.8231 56.798 48.8478 56.7991 48.873C56.8001 48.8983 56.796 48.9234 56.7869 48.947C56.7777 48.9705 56.7639 48.9919 56.7461 49.0099C56.7283 49.0278 56.7071 49.0419 56.6836 49.0512C56.6602 49.0606 56.635 49.065 56.6098 49.0642C56.5846 49.0633 56.5598 49.0573 56.537 49.0465C56.4085 48.9951 43.5955 44.176 35.9577 58.8939C35.9423 58.9235 35.9192 58.9484 35.8907 58.9659C35.8623 58.9833 35.8296 58.9927 35.7962 58.993Z" fill="#231F20"/>
<path d="M55.9461 27.8029C55.9084 27.8029 55.8716 27.7913 55.8407 27.7696C55.8098 27.748 55.7864 27.7173 55.7736 27.6818C55.7332 27.5717 51.5528 16.671 41.1805 15.3497C41.1319 15.3438 41.0875 15.3189 41.0572 15.2803C41.0269 15.2418 41.0132 15.1928 41.019 15.1441C41.0249 15.0955 41.0498 15.0511 41.0884 15.0208C41.1269 14.9905 41.1759 14.9768 41.2246 14.9826C51.8207 16.337 56.0782 27.4396 56.1186 27.5497C56.1274 27.5723 56.1317 27.5965 56.1311 27.6208C56.1305 27.6451 56.1251 27.669 56.1152 27.6912C56.1053 27.7134 56.0911 27.7334 56.0734 27.7501C56.0557 27.7667 56.0349 27.7797 56.0121 27.7883C55.9911 27.7967 55.9688 27.8017 55.9461 27.8029Z" fill="#231F20"/>
<path d="M110.967 9.12475C111.006 8.96109 111.025 8.79365 111.026 8.62559C111.026 7.20152 109.602 6.05639 107.848 6.05639C107.379 6.05507 106.915 6.14095 106.479 6.30964C106.479 6.28028 106.479 6.25092 106.479 6.22155C106.479 4.80115 105.054 3.65235 103.3 3.65235C102.722 3.62884 102.147 3.75953 101.636 4.03104C101.124 4.30256 100.694 4.70514 100.39 5.19754C100.042 5.14122 99.6914 5.11299 99.3398 5.11313C96.5394 5.08744 94.2381 6.87119 94.073 9.12475C92.4214 9.12475 91.0891 10.2258 91.0891 11.5802C91.0891 12.9345 92.4434 14.0356 94.117 14.0356H102.808" fill="white"/>
<path d="M102.808 14.2008H94.117C92.3443 14.2008 90.9055 13.0153 90.9055 11.5619C90.9055 10.1709 92.2378 9.01838 93.9078 8.93029C94.1868 6.66573 96.5357 4.915 99.3435 4.915C99.6628 4.91496 99.9816 4.93703 100.298 4.98107C100.629 4.49366 101.079 4.09807 101.604 3.83111C102.13 3.56415 102.715 3.4345 103.304 3.45423C105.088 3.45423 106.552 4.60303 106.658 6.04545C107.043 5.92474 107.444 5.86408 107.848 5.86561C109.701 5.86561 111.21 7.10249 111.21 8.62566C111.209 8.80872 111.187 8.99109 111.143 9.16886C111.132 9.216 111.103 9.25673 111.061 9.28217C111.02 9.30761 110.97 9.3157 110.923 9.30466C110.9 9.29908 110.877 9.28882 110.857 9.27449C110.838 9.26016 110.821 9.24205 110.808 9.2212C110.796 9.20036 110.787 9.17721 110.784 9.1531C110.78 9.12899 110.781 9.1044 110.787 9.08078C110.824 8.9318 110.842 8.77901 110.843 8.62566C110.843 7.30436 109.499 6.23263 107.848 6.23263C107.402 6.23094 106.96 6.31312 106.545 6.47487C106.513 6.48432 106.479 6.48535 106.446 6.47786C106.413 6.47038 106.383 6.45462 106.359 6.43212C106.334 6.40962 106.315 6.38114 106.305 6.34941C106.294 6.31768 106.292 6.28379 106.299 6.25099C106.299 4.89665 104.955 3.82126 103.304 3.82126C102.757 3.80085 102.214 3.926 101.731 4.18392C101.248 4.44185 100.842 4.82331 100.555 5.28937C100.537 5.32329 100.509 5.35058 100.475 5.36713C100.44 5.38368 100.401 5.38859 100.364 5.38113C100.026 5.32661 99.6853 5.2996 99.3435 5.30038C96.6605 5.30038 94.4253 6.98504 94.2565 9.1395C94.2537 9.18527 94.2335 9.22823 94.2001 9.25961C94.1667 9.29099 94.1225 9.30842 94.0767 9.30833C92.5315 9.30833 91.2726 10.3434 91.2726 11.5802C91.2726 12.8171 92.5462 13.8521 94.117 13.8521H102.808C102.857 13.8521 102.904 13.8715 102.938 13.9059C102.972 13.9403 102.992 13.987 102.992 14.0357C102.992 14.0843 102.972 14.131 102.938 14.1654C102.904 14.1998 102.857 14.2192 102.808 14.2192V14.2008Z" fill="#D1D3D4"/>
<path d="M112.223 75.1899C112.223 72.8042 109.855 70.8663 106.923 70.8333C106.614 66.8657 102.548 63.7239 97.5782 63.7239C96.9536 63.7233 96.33 63.7736 95.7136 63.8744C94.8438 62.2595 92.8582 61.1327 90.5496 61.1327C87.4372 61.1327 84.912 63.1807 84.912 65.7059C84.912 65.7573 84.912 65.8086 84.912 65.86C84.1358 65.5602 83.3107 65.4071 82.4786 65.4086C79.3625 65.4086 76.841 67.4566 76.841 69.9817C76.8409 70.2798 76.8767 70.5768 76.9475 70.8663C74.2939 71.1305 72.2348 72.962 72.2348 75.1899C72.2348 77.5939 74.6389 79.5465 77.6045 79.5465" fill="white"/>
<path d="M77.6081 79.7448C74.5471 79.7448 72.055 77.7078 72.055 75.2046C72.055 72.9694 74.0516 71.0719 76.7309 70.7232C76.6838 70.4814 76.6604 70.2355 76.6612 69.9892C76.6612 67.3649 79.2708 65.2178 82.4823 65.2178C83.2437 65.2152 84.0004 65.3393 84.7212 65.5848C84.7946 63.0156 87.3784 60.9382 90.5422 60.9382C92.7958 60.9382 94.8438 62.0026 95.8054 63.6616C96.3897 63.5732 96.9799 63.529 97.5708 63.5295C102.526 63.5295 106.669 66.6419 107.084 70.6461C110.02 70.7489 112.399 72.7566 112.399 75.1789C112.399 75.2276 112.379 75.2743 112.345 75.3087C112.311 75.3431 112.264 75.3625 112.215 75.3625C112.167 75.3625 112.12 75.3431 112.085 75.3087C112.051 75.2743 112.032 75.2276 112.032 75.1789C112.032 72.9107 109.738 71.0389 106.915 71.0058C106.87 71.0059 106.825 70.9885 106.792 70.9571C106.759 70.9257 106.738 70.8828 106.736 70.837C106.431 66.9465 102.405 63.8965 97.5598 63.8965C96.9451 63.8955 96.3314 63.9446 95.7247 64.0433C95.6868 64.0498 95.6479 64.0441 95.6136 64.0269C95.5792 64.0098 95.5513 63.9821 95.5338 63.9479C94.6676 62.344 92.704 61.3053 90.5312 61.3053C87.5252 61.3053 85.0772 63.2725 85.0772 65.7096C85.0772 65.7353 85.0772 65.761 85.0772 65.783V65.8564C85.077 65.8868 85.07 65.9168 85.0567 65.9441C85.0433 65.9715 85.024 65.9954 85.0001 66.0142C84.9748 66.0322 84.9455 66.0436 84.9148 66.0475C84.884 66.0513 84.8528 66.0475 84.8239 66.0363C84.0706 65.7426 83.2688 65.5932 82.4603 65.5958C79.4506 65.5958 77.0062 67.5631 77.0062 70.0002C77.0062 70.2847 77.0407 70.5681 77.109 70.8443C77.1144 70.8695 77.1147 70.8955 77.1096 70.9208C77.1046 70.9461 77.0943 70.97 77.0796 70.9911C77.065 71.0133 77.0455 71.0318 77.0226 71.0451C76.9996 71.0585 76.974 71.0664 76.9475 71.0682C74.3563 71.3251 72.4 73.1052 72.4 75.2083C72.4 77.5096 74.727 79.3814 77.5861 79.3814C77.6348 79.3814 77.6815 79.4007 77.7159 79.4352C77.7503 79.4696 77.7696 79.5163 77.7696 79.5649C77.7696 79.6136 77.7503 79.6603 77.7159 79.6947C77.6815 79.7291 77.6348 79.7484 77.5861 79.7484L77.6081 79.7448Z" fill="#D1D3D4"/>
</svg>
